<mxfile host="app.diagrams.net" agent="Mozilla/5.0 (Windows NT 10.0; Win64; x64) AppleWebKit/537.36 (KHTML, like Gecko) Chrome/131.0.0.0 Safari/537.36 OPR/116.0.0.0" version="26.0.11">
  <diagram name="Pagina-1" id="20gmEQ6pca6ujIJokLlF">
    <mxGraphModel grid="1" page="1" gridSize="10" guides="1" tooltips="1" connect="1" arrows="1" fold="1" pageScale="1" pageWidth="827" pageHeight="1169" math="0" shadow="0">
      <root>
        <mxCell id="0" />
        <mxCell id="1" parent="0" />
        <mxCell id="ktAii_2EgNVlv4ma-x-2-1" value="Utente" style="rounded=0;whiteSpace=wrap;html=1;" vertex="1" parent="1">
          <mxGeometry x="-400" y="220" width="120" height="60" as="geometry" />
        </mxCell>
        <mxCell id="ktAii_2EgNVlv4ma-x-2-2" value="Titolo di viaggio" style="rounded=0;whiteSpace=wrap;html=1;" vertex="1" parent="1">
          <mxGeometry x="520" y="240" width="120" height="60" as="geometry" />
        </mxCell>
        <mxCell id="ktAii_2EgNVlv4ma-x-2-16" value="" style="edgeStyle=orthogonalEdgeStyle;rounded=0;orthogonalLoop=1;jettySize=auto;html=1;" edge="1" parent="1" source="ktAii_2EgNVlv4ma-x-2-3" target="ktAii_2EgNVlv4ma-x-2-1">
          <mxGeometry relative="1" as="geometry" />
        </mxCell>
        <mxCell id="ktAii_2EgNVlv4ma-x-2-3" value="Cliente" style="rounded=0;whiteSpace=wrap;html=1;" vertex="1" parent="1">
          <mxGeometry x="-300" y="360" width="120" height="60" as="geometry" />
        </mxCell>
        <mxCell id="ktAii_2EgNVlv4ma-x-2-7" value="" style="edgeStyle=orthogonalEdgeStyle;rounded=0;orthogonalLoop=1;jettySize=auto;html=1;" edge="1" parent="1" source="ktAii_2EgNVlv4ma-x-2-4" target="ktAii_2EgNVlv4ma-x-2-1">
          <mxGeometry relative="1" as="geometry" />
        </mxCell>
        <mxCell id="ktAii_2EgNVlv4ma-x-2-4" value="Dipendente" style="rounded=0;whiteSpace=wrap;html=1;" vertex="1" parent="1">
          <mxGeometry x="-500" y="700" width="120" height="60" as="geometry" />
        </mxCell>
        <mxCell id="ktAii_2EgNVlv4ma-x-2-13" value="" style="edgeStyle=orthogonalEdgeStyle;rounded=0;orthogonalLoop=1;jettySize=auto;html=1;" edge="1" parent="1" source="ktAii_2EgNVlv4ma-x-2-12" target="ktAii_2EgNVlv4ma-x-2-2">
          <mxGeometry relative="1" as="geometry" />
        </mxCell>
        <mxCell id="ktAii_2EgNVlv4ma-x-2-12" value="Biglietto" style="rounded=0;whiteSpace=wrap;html=1;" vertex="1" parent="1">
          <mxGeometry x="630" y="378" width="120" height="60" as="geometry" />
        </mxCell>
        <mxCell id="ktAii_2EgNVlv4ma-x-2-15" value="" style="edgeStyle=orthogonalEdgeStyle;rounded=0;orthogonalLoop=1;jettySize=auto;html=1;" edge="1" parent="1" source="ktAii_2EgNVlv4ma-x-2-14" target="ktAii_2EgNVlv4ma-x-2-2">
          <mxGeometry relative="1" as="geometry" />
        </mxCell>
        <mxCell id="ktAii_2EgNVlv4ma-x-2-14" value="Abbonamento" style="rounded=0;whiteSpace=wrap;html=1;" vertex="1" parent="1">
          <mxGeometry x="432.5" y="360" width="120" height="60" as="geometry" />
        </mxCell>
        <mxCell id="ktAii_2EgNVlv4ma-x-2-17" value="Tessera" style="rounded=0;whiteSpace=wrap;html=1;" vertex="1" parent="1">
          <mxGeometry x="40" y="360" width="120" height="60" as="geometry" />
        </mxCell>
        <mxCell id="ktAii_2EgNVlv4ma-x-2-18" value="possesso" style="rhombus;whiteSpace=wrap;html=1;" vertex="1" parent="1">
          <mxGeometry x="-105" y="355" width="60" height="70" as="geometry" />
        </mxCell>
        <mxCell id="ktAii_2EgNVlv4ma-x-2-23" value="&lt;font style=&quot;font-size: 9px;&quot;&gt;caricamento&lt;/font&gt;" style="rhombus;whiteSpace=wrap;html=1;" vertex="1" parent="1">
          <mxGeometry x="270" y="355" width="60" height="70" as="geometry" />
        </mxCell>
        <mxCell id="ktAii_2EgNVlv4ma-x-2-31" value="Treno&lt;span style=&quot;color: rgba(0, 0, 0, 0); font-family: monospace; font-size: 0px; text-align: start; text-wrap-mode: nowrap;&quot;&gt;%3CmxGraphModel%3E%3Croot%3E%3CmxCell%20id%3D%220%22%2F%3E%3CmxCell%20id%3D%221%22%20parent%3D%220%22%2F%3E%3CmxCell%20id%3D%222%22%20value%3D%22possesso%22%20style%3D%22rhombus%3BwhiteSpace%3Dwrap%3Bhtml%3D1%3B%22%20vertex%3D%221%22%20parent%3D%221%22%3E%3CmxGeometry%20x%3D%22360%22%20y%3D%2295%22%20width%3D%2260%22%20height%3D%2270%22%20as%3D%22geometry%22%2F%3E%3C%2FmxCell%3E%3C%2Froot%3E%3C%2FmxGraphModel%3E&lt;/span&gt;" style="rounded=0;whiteSpace=wrap;html=1;" vertex="1" parent="1">
          <mxGeometry x="1200" y="700" width="120" height="60" as="geometry" />
        </mxCell>
        <mxCell id="ktAii_2EgNVlv4ma-x-2-33" value="Fermata" style="rounded=0;whiteSpace=wrap;html=1;" vertex="1" parent="1">
          <mxGeometry x="900" y="-160" width="120" height="60" as="geometry" />
        </mxCell>
        <mxCell id="ktAii_2EgNVlv4ma-x-2-35" value="Tratta" style="rounded=0;whiteSpace=wrap;html=1;" vertex="1" parent="1">
          <mxGeometry x="900" y="242.5" width="120" height="60" as="geometry" />
        </mxCell>
        <mxCell id="ktAii_2EgNVlv4ma-x-2-36" value="TRF" style="rhombus;whiteSpace=wrap;html=1;" vertex="1" parent="1">
          <mxGeometry x="911.25" y="158" width="97.5" height="52" as="geometry" />
        </mxCell>
        <mxCell id="ktAii_2EgNVlv4ma-x-2-39" value="" style="endArrow=none;html=1;rounded=0;entryX=0.5;entryY=1;entryDx=0;entryDy=0;exitX=0.5;exitY=0;exitDx=0;exitDy=0;" edge="1" parent="1" source="ktAii_2EgNVlv4ma-x-2-35" target="ktAii_2EgNVlv4ma-x-2-36">
          <mxGeometry width="50" height="50" relative="1" as="geometry">
            <mxPoint x="1290" y="330" as="sourcePoint" />
            <mxPoint x="1340" y="280" as="targetPoint" />
          </mxGeometry>
        </mxCell>
        <mxCell id="SL1HbyL2wO8Xgx7NEVwD-1" value="TT" style="rhombus;whiteSpace=wrap;html=1;" vertex="1" parent="1">
          <mxGeometry x="1140" y="247.5" width="50" height="50" as="geometry" />
        </mxCell>
        <mxCell id="SL1HbyL2wO8Xgx7NEVwD-4" value="" style="endArrow=none;html=1;rounded=0;entryX=1;entryY=0.5;entryDx=0;entryDy=0;exitX=0;exitY=0.5;exitDx=0;exitDy=0;" edge="1" parent="1" source="ktAii_2EgNVlv4ma-x-2-18" target="ktAii_2EgNVlv4ma-x-2-3">
          <mxGeometry width="50" height="50" relative="1" as="geometry">
            <mxPoint x="-120" y="520" as="sourcePoint" />
            <mxPoint x="-70" y="470" as="targetPoint" />
          </mxGeometry>
        </mxCell>
        <mxCell id="SL1HbyL2wO8Xgx7NEVwD-5" value="" style="endArrow=none;html=1;rounded=0;entryX=1;entryY=0.5;entryDx=0;entryDy=0;exitX=0;exitY=0.5;exitDx=0;exitDy=0;" edge="1" parent="1" source="ktAii_2EgNVlv4ma-x-2-17" target="ktAii_2EgNVlv4ma-x-2-18">
          <mxGeometry width="50" height="50" relative="1" as="geometry">
            <mxPoint x="-120" y="520" as="sourcePoint" />
            <mxPoint x="-70" y="470" as="targetPoint" />
          </mxGeometry>
        </mxCell>
        <mxCell id="SL1HbyL2wO8Xgx7NEVwD-8" value="" style="shape=waypoint;sketch=0;fillStyle=solid;size=6;pointerEvents=1;points=[];fillColor=none;resizable=0;rotatable=0;perimeter=centerPerimeter;snapToPoint=1;" vertex="1" parent="1">
          <mxGeometry x="-410" y="180" width="20" height="20" as="geometry" />
        </mxCell>
        <mxCell id="SL1HbyL2wO8Xgx7NEVwD-9" value="" style="shape=waypoint;sketch=0;fillStyle=solid;size=6;pointerEvents=1;points=[];fillColor=none;resizable=0;rotatable=0;perimeter=centerPerimeter;snapToPoint=1;" vertex="1" parent="1">
          <mxGeometry x="40" y="320" width="20" height="20" as="geometry" />
        </mxCell>
        <mxCell id="SL1HbyL2wO8Xgx7NEVwD-10" value="" style="endArrow=none;html=1;rounded=0;entryX=0.562;entryY=0.71;entryDx=0;entryDy=0;entryPerimeter=0;exitX=0.12;exitY=0.02;exitDx=0;exitDy=0;exitPerimeter=0;" edge="1" parent="1" source="ktAii_2EgNVlv4ma-x-2-1" target="SL1HbyL2wO8Xgx7NEVwD-8">
          <mxGeometry width="50" height="50" relative="1" as="geometry">
            <mxPoint x="-130" y="360" as="sourcePoint" />
            <mxPoint x="-80" y="310" as="targetPoint" />
          </mxGeometry>
        </mxCell>
        <mxCell id="SL1HbyL2wO8Xgx7NEVwD-11" value="Codice Fiscale" style="text;html=1;align=center;verticalAlign=middle;resizable=0;points=[];autosize=1;strokeColor=none;fillColor=none;" vertex="1" parent="1">
          <mxGeometry x="-490" y="165" width="100" height="30" as="geometry" />
        </mxCell>
        <mxCell id="SL1HbyL2wO8Xgx7NEVwD-12" value="" style="endArrow=none;html=1;rounded=0;entryX=1;entryY=0.5;entryDx=0;entryDy=0;exitX=0;exitY=0.5;exitDx=0;exitDy=0;" edge="1" parent="1" source="ktAii_2EgNVlv4ma-x-2-23" target="ktAii_2EgNVlv4ma-x-2-17">
          <mxGeometry width="50" height="50" relative="1" as="geometry">
            <mxPoint x="350" y="460" as="sourcePoint" />
            <mxPoint x="400" y="410" as="targetPoint" />
          </mxGeometry>
        </mxCell>
        <mxCell id="SL1HbyL2wO8Xgx7NEVwD-13" value="" style="endArrow=none;html=1;rounded=0;entryX=1;entryY=0.5;entryDx=0;entryDy=0;exitX=0;exitY=0.5;exitDx=0;exitDy=0;" edge="1" parent="1" source="ktAii_2EgNVlv4ma-x-2-14" target="ktAii_2EgNVlv4ma-x-2-23">
          <mxGeometry width="50" height="50" relative="1" as="geometry">
            <mxPoint x="350" y="460" as="sourcePoint" />
            <mxPoint x="400" y="410" as="targetPoint" />
          </mxGeometry>
        </mxCell>
        <mxCell id="SL1HbyL2wO8Xgx7NEVwD-14" value="" style="endArrow=none;html=1;rounded=0;exitX=0.25;exitY=0;exitDx=0;exitDy=0;" edge="1" parent="1" source="ktAii_2EgNVlv4ma-x-2-17" target="SL1HbyL2wO8Xgx7NEVwD-9">
          <mxGeometry width="50" height="50" relative="1" as="geometry">
            <mxPoint x="350" y="460" as="sourcePoint" />
            <mxPoint x="400" y="410" as="targetPoint" />
          </mxGeometry>
        </mxCell>
        <mxCell id="SL1HbyL2wO8Xgx7NEVwD-15" value="Pagamento" style="rounded=0;whiteSpace=wrap;html=1;" vertex="1" parent="1">
          <mxGeometry x="160" y="133" width="120" height="60" as="geometry" />
        </mxCell>
        <mxCell id="SL1HbyL2wO8Xgx7NEVwD-17" value="" style="endArrow=none;html=1;rounded=0;entryX=0.75;entryY=0;entryDx=0;entryDy=0;exitX=0;exitY=0.5;exitDx=0;exitDy=0;" edge="1" parent="1" source="SL1HbyL2wO8Xgx7NEVwD-18" target="ktAii_2EgNVlv4ma-x-2-3">
          <mxGeometry width="50" height="50" relative="1" as="geometry">
            <mxPoint x="-210" y="200" as="sourcePoint" />
            <mxPoint x="40" y="340" as="targetPoint" />
            <Array as="points">
              <mxPoint x="-130" y="160" />
              <mxPoint x="-210" y="160" />
            </Array>
          </mxGeometry>
        </mxCell>
        <mxCell id="SL1HbyL2wO8Xgx7NEVwD-18" value="effettuazione" style="rhombus;whiteSpace=wrap;html=1;" vertex="1" parent="1">
          <mxGeometry x="-70" y="138" width="100" height="50" as="geometry" />
        </mxCell>
        <mxCell id="SL1HbyL2wO8Xgx7NEVwD-20" value="" style="endArrow=none;html=1;rounded=0;entryX=1;entryY=0.5;entryDx=0;entryDy=0;exitX=0;exitY=0.5;exitDx=0;exitDy=0;" edge="1" parent="1" source="SL1HbyL2wO8Xgx7NEVwD-15" target="SL1HbyL2wO8Xgx7NEVwD-18">
          <mxGeometry width="50" height="50" relative="1" as="geometry">
            <mxPoint x="-10" y="390" as="sourcePoint" />
            <mxPoint x="40" y="340" as="targetPoint" />
          </mxGeometry>
        </mxCell>
        <mxCell id="SL1HbyL2wO8Xgx7NEVwD-22" value="" style="endArrow=none;html=1;rounded=0;entryX=1;entryY=0.5;entryDx=0;entryDy=0;exitX=0;exitY=0.5;exitDx=0;exitDy=0;" edge="1" parent="1" source="SL1HbyL2wO8Xgx7NEVwD-23" target="SL1HbyL2wO8Xgx7NEVwD-15">
          <mxGeometry width="50" height="50" relative="1" as="geometry">
            <mxPoint x="450" y="205" as="sourcePoint" />
            <mxPoint x="180" y="340" as="targetPoint" />
          </mxGeometry>
        </mxCell>
        <mxCell id="SL1HbyL2wO8Xgx7NEVwD-23" value="ricezione" style="rhombus;whiteSpace=wrap;html=1;" vertex="1" parent="1">
          <mxGeometry x="552.5" y="140" width="55" height="48" as="geometry" />
        </mxCell>
        <mxCell id="SL1HbyL2wO8Xgx7NEVwD-24" value="" style="endArrow=none;html=1;rounded=0;entryX=0.5;entryY=1;entryDx=0;entryDy=0;exitX=0.5;exitY=0;exitDx=0;exitDy=0;" edge="1" parent="1" source="ktAii_2EgNVlv4ma-x-2-2" target="SL1HbyL2wO8Xgx7NEVwD-23">
          <mxGeometry width="50" height="50" relative="1" as="geometry">
            <mxPoint x="130" y="390" as="sourcePoint" />
            <mxPoint x="180" y="340" as="targetPoint" />
          </mxGeometry>
        </mxCell>
        <mxCell id="SL1HbyL2wO8Xgx7NEVwD-25" value="Rimborso" style="html=1;whiteSpace=wrap;" vertex="1" parent="1">
          <mxGeometry x="90" y="520" width="140" height="65" as="geometry" />
        </mxCell>
        <mxCell id="SL1HbyL2wO8Xgx7NEVwD-27" value="" style="endArrow=none;html=1;rounded=0;entryX=0;entryY=0.5;entryDx=0;entryDy=0;exitX=1;exitY=0.5;exitDx=0;exitDy=0;" edge="1" parent="1" source="SL1HbyL2wO8Xgx7NEVwD-28" target="SL1HbyL2wO8Xgx7NEVwD-25">
          <mxGeometry width="50" height="50" relative="1" as="geometry">
            <mxPoint x="-40" y="553" as="sourcePoint" />
            <mxPoint x="110" y="390" as="targetPoint" />
          </mxGeometry>
        </mxCell>
        <mxCell id="SL1HbyL2wO8Xgx7NEVwD-28" value="richiesta" style="rhombus;whiteSpace=wrap;html=1;" vertex="1" parent="1">
          <mxGeometry x="-110" y="522.5" width="60" height="60" as="geometry" />
        </mxCell>
        <mxCell id="SL1HbyL2wO8Xgx7NEVwD-29" value="" style="endArrow=none;html=1;rounded=0;entryX=0.5;entryY=1;entryDx=0;entryDy=0;exitX=0;exitY=0.5;exitDx=0;exitDy=0;" edge="1" parent="1" source="SL1HbyL2wO8Xgx7NEVwD-28" target="ktAii_2EgNVlv4ma-x-2-3">
          <mxGeometry width="50" height="50" relative="1" as="geometry">
            <mxPoint x="-240" y="550" as="sourcePoint" />
            <mxPoint x="110" y="390" as="targetPoint" />
            <Array as="points">
              <mxPoint x="-240" y="553" />
            </Array>
          </mxGeometry>
        </mxCell>
        <mxCell id="SL1HbyL2wO8Xgx7NEVwD-30" value="" style="endArrow=none;html=1;rounded=0;exitX=1;exitY=0.5;exitDx=0;exitDy=0;entryX=0;entryY=0.5;entryDx=0;entryDy=0;" edge="1" parent="1" source="SL1HbyL2wO8Xgx7NEVwD-25" target="SL1HbyL2wO8Xgx7NEVwD-32">
          <mxGeometry width="50" height="50" relative="1" as="geometry">
            <mxPoint x="60" y="440" as="sourcePoint" />
            <mxPoint x="400" y="553" as="targetPoint" />
          </mxGeometry>
        </mxCell>
        <mxCell id="SL1HbyL2wO8Xgx7NEVwD-32" value="&lt;span style=&quot;font-size: 10px;&quot;&gt;riguarda&lt;/span&gt;" style="rhombus;whiteSpace=wrap;html=1;" vertex="1" parent="1">
          <mxGeometry x="510" y="522.5" width="60" height="60" as="geometry" />
        </mxCell>
        <mxCell id="SL1HbyL2wO8Xgx7NEVwD-34" value="" style="endArrow=none;html=1;rounded=0;entryX=1;entryY=0.5;entryDx=0;entryDy=0;exitX=0.558;exitY=1.05;exitDx=0;exitDy=0;exitPerimeter=0;" edge="1" parent="1" source="ktAii_2EgNVlv4ma-x-2-12" target="SL1HbyL2wO8Xgx7NEVwD-32">
          <mxGeometry width="50" height="50" relative="1" as="geometry">
            <mxPoint x="760" y="553" as="sourcePoint" />
            <mxPoint x="210" y="390" as="targetPoint" />
            <Array as="points">
              <mxPoint x="697" y="553" />
            </Array>
          </mxGeometry>
        </mxCell>
        <mxCell id="SL1HbyL2wO8Xgx7NEVwD-37" value="" style="endArrow=none;html=1;rounded=0;entryX=1;entryY=0.5;entryDx=0;entryDy=0;exitX=0;exitY=0.5;exitDx=0;exitDy=0;" edge="1" parent="1" source="SL1HbyL2wO8Xgx7NEVwD-1" target="ktAii_2EgNVlv4ma-x-2-35">
          <mxGeometry width="50" height="50" relative="1" as="geometry">
            <mxPoint x="1000" y="400" as="sourcePoint" />
            <mxPoint x="1050" y="350" as="targetPoint" />
          </mxGeometry>
        </mxCell>
        <mxCell id="SL1HbyL2wO8Xgx7NEVwD-40" value="appartenenza" style="rhombus;whiteSpace=wrap;html=1;" vertex="1" parent="1">
          <mxGeometry x="740" y="242.5" width="100" height="55" as="geometry" />
        </mxCell>
        <mxCell id="SL1HbyL2wO8Xgx7NEVwD-41" value="" style="endArrow=none;html=1;rounded=0;entryX=1;entryY=0.5;entryDx=0;entryDy=0;exitX=0;exitY=0.5;exitDx=0;exitDy=0;" edge="1" parent="1" source="ktAii_2EgNVlv4ma-x-2-35" target="SL1HbyL2wO8Xgx7NEVwD-40">
          <mxGeometry width="50" height="50" relative="1" as="geometry">
            <mxPoint x="880" y="300" as="sourcePoint" />
            <mxPoint x="930" y="250" as="targetPoint" />
          </mxGeometry>
        </mxCell>
        <mxCell id="T77WnbDbM9Hba829o4ZQ-1" value="0,1" style="text;html=1;align=center;verticalAlign=middle;resizable=0;points=[];autosize=1;strokeColor=none;fillColor=none;" vertex="1" parent="1">
          <mxGeometry x="-160" y="360" width="40" height="30" as="geometry" />
        </mxCell>
        <mxCell id="T77WnbDbM9Hba829o4ZQ-2" value="1,1" style="text;html=1;align=center;verticalAlign=middle;resizable=0;points=[];autosize=1;strokeColor=none;fillColor=none;" vertex="1" parent="1">
          <mxGeometry x="-20" y="360" width="40" height="30" as="geometry" />
        </mxCell>
        <mxCell id="T77WnbDbM9Hba829o4ZQ-3" value="0,n" style="text;html=1;align=center;verticalAlign=middle;resizable=0;points=[];autosize=1;strokeColor=none;fillColor=none;" vertex="1" parent="1">
          <mxGeometry x="180" y="360" width="40" height="30" as="geometry" />
        </mxCell>
        <mxCell id="T77WnbDbM9Hba829o4ZQ-4" value="1,1" style="text;html=1;align=center;verticalAlign=middle;resizable=0;points=[];autosize=1;strokeColor=none;fillColor=none;" vertex="1" parent="1">
          <mxGeometry x="360" y="360" width="40" height="30" as="geometry" />
        </mxCell>
        <mxCell id="T77WnbDbM9Hba829o4ZQ-5" value="0,n" style="text;html=1;align=center;verticalAlign=middle;resizable=0;points=[];autosize=1;strokeColor=none;fillColor=none;" vertex="1" parent="1">
          <mxGeometry x="-230" y="520" width="40" height="30" as="geometry" />
        </mxCell>
        <mxCell id="T77WnbDbM9Hba829o4ZQ-6" value="0,n" style="text;html=1;align=center;verticalAlign=middle;resizable=0;points=[];autosize=1;strokeColor=none;fillColor=none;" vertex="1" parent="1">
          <mxGeometry x="-210" y="247.5" width="40" height="30" as="geometry" />
        </mxCell>
        <mxCell id="T77WnbDbM9Hba829o4ZQ-7" value="1,1" style="text;html=1;align=center;verticalAlign=middle;resizable=0;points=[];autosize=1;strokeColor=none;fillColor=none;" vertex="1" parent="1">
          <mxGeometry x="93" y="135" width="40" height="30" as="geometry" />
        </mxCell>
        <mxCell id="T77WnbDbM9Hba829o4ZQ-8" value="1,1" style="text;html=1;align=center;verticalAlign=middle;resizable=0;points=[];autosize=1;strokeColor=none;fillColor=none;" vertex="1" parent="1">
          <mxGeometry x="30" y="522.5" width="40" height="30" as="geometry" />
        </mxCell>
        <mxCell id="T77WnbDbM9Hba829o4ZQ-9" value="0,1" style="text;html=1;align=center;verticalAlign=middle;resizable=0;points=[];autosize=1;strokeColor=none;fillColor=none;" vertex="1" parent="1">
          <mxGeometry x="340" y="522.5" width="40" height="30" as="geometry" />
        </mxCell>
        <mxCell id="T77WnbDbM9Hba829o4ZQ-10" value="0,1" style="text;html=1;align=center;verticalAlign=middle;resizable=0;points=[];autosize=1;strokeColor=none;fillColor=none;" vertex="1" parent="1">
          <mxGeometry x="700" y="450" width="40" height="30" as="geometry" />
        </mxCell>
        <mxCell id="T77WnbDbM9Hba829o4ZQ-11" value="" style="endArrow=none;html=1;rounded=0;exitX=0.5;exitY=0;exitDx=0;exitDy=0;entryX=0.5;entryY=1;entryDx=0;entryDy=0;" edge="1" parent="1" source="ktAii_2EgNVlv4ma-x-2-31" target="T77WnbDbM9Hba829o4ZQ-20">
          <mxGeometry width="50" height="50" relative="1" as="geometry">
            <mxPoint x="1010" y="530" as="sourcePoint" />
            <mxPoint x="1260" y="560" as="targetPoint" />
          </mxGeometry>
        </mxCell>
        <mxCell id="T77WnbDbM9Hba829o4ZQ-12" value="" style="endArrow=none;html=1;rounded=0;exitX=1;exitY=0.5;exitDx=0;exitDy=0;entryX=0;entryY=0.5;entryDx=0;entryDy=0;" edge="1" parent="1" source="ktAii_2EgNVlv4ma-x-2-4" target="T77WnbDbM9Hba829o4ZQ-13">
          <mxGeometry width="50" height="50" relative="1" as="geometry">
            <mxPoint x="-340" y="700" as="sourcePoint" />
            <mxPoint x="50" y="680" as="targetPoint" />
          </mxGeometry>
        </mxCell>
        <mxCell id="T77WnbDbM9Hba829o4ZQ-13" value="lavora" style="rhombus;whiteSpace=wrap;html=1;" vertex="1" parent="1">
          <mxGeometry x="390" y="690" width="80" height="80" as="geometry" />
        </mxCell>
        <mxCell id="T77WnbDbM9Hba829o4ZQ-14" value="" style="endArrow=none;html=1;rounded=0;entryX=0;entryY=0.5;entryDx=0;entryDy=0;exitX=1;exitY=0.5;exitDx=0;exitDy=0;" edge="1" parent="1" source="T77WnbDbM9Hba829o4ZQ-13" target="ktAii_2EgNVlv4ma-x-2-31">
          <mxGeometry width="50" height="50" relative="1" as="geometry">
            <mxPoint x="360" y="700" as="sourcePoint" />
            <mxPoint x="930" y="730" as="targetPoint" />
          </mxGeometry>
        </mxCell>
        <mxCell id="T77WnbDbM9Hba829o4ZQ-15" value="0,1" style="text;html=1;align=center;verticalAlign=middle;resizable=0;points=[];autosize=1;strokeColor=none;fillColor=none;" vertex="1" parent="1">
          <mxGeometry x="-105" y="700" width="40" height="30" as="geometry" />
        </mxCell>
        <mxCell id="T77WnbDbM9Hba829o4ZQ-16" value="1,n" style="text;html=1;align=center;verticalAlign=middle;resizable=0;points=[];autosize=1;strokeColor=none;fillColor=none;" vertex="1" parent="1">
          <mxGeometry x="787" y="700" width="40" height="30" as="geometry" />
        </mxCell>
        <mxCell id="T77WnbDbM9Hba829o4ZQ-17" value="0,n" style="text;html=1;align=center;verticalAlign=middle;resizable=0;points=[];autosize=1;strokeColor=none;fillColor=none;" vertex="1" parent="1">
          <mxGeometry x="1270" y="610" width="40" height="30" as="geometry" />
        </mxCell>
        <mxCell id="T77WnbDbM9Hba829o4ZQ-18" value="1,n" style="text;html=1;align=center;verticalAlign=middle;resizable=0;points=[];autosize=1;strokeColor=none;fillColor=none;" vertex="1" parent="1">
          <mxGeometry x="1050" y="242.5" width="40" height="30" as="geometry" />
        </mxCell>
        <mxCell id="T77WnbDbM9Hba829o4ZQ-19" value="TrenoTratta" style="rounded=0;whiteSpace=wrap;html=1;" vertex="1" parent="1">
          <mxGeometry x="1200" y="355" width="120" height="60" as="geometry" />
        </mxCell>
        <mxCell id="T77WnbDbM9Hba829o4ZQ-20" value="AT" style="rhombus;whiteSpace=wrap;html=1;" vertex="1" parent="1">
          <mxGeometry x="1230" y="490" width="60" height="60" as="geometry" />
        </mxCell>
        <mxCell id="T77WnbDbM9Hba829o4ZQ-21" value="" style="endArrow=none;html=1;rounded=0;entryX=0.5;entryY=1;entryDx=0;entryDy=0;exitX=0.5;exitY=0;exitDx=0;exitDy=0;" edge="1" parent="1" source="T77WnbDbM9Hba829o4ZQ-20" target="T77WnbDbM9Hba829o4ZQ-19">
          <mxGeometry width="50" height="50" relative="1" as="geometry">
            <mxPoint x="990" y="510" as="sourcePoint" />
            <mxPoint x="1040" y="460" as="targetPoint" />
          </mxGeometry>
        </mxCell>
        <mxCell id="T77WnbDbM9Hba829o4ZQ-22" value="" style="endArrow=none;html=1;rounded=0;entryX=0.5;entryY=0;entryDx=0;entryDy=0;exitX=1;exitY=0.5;exitDx=0;exitDy=0;" edge="1" parent="1" source="SL1HbyL2wO8Xgx7NEVwD-1" target="T77WnbDbM9Hba829o4ZQ-19">
          <mxGeometry width="50" height="50" relative="1" as="geometry">
            <mxPoint x="1170" y="510" as="sourcePoint" />
            <mxPoint x="1220" y="460" as="targetPoint" />
            <Array as="points">
              <mxPoint x="1260" y="273" />
            </Array>
          </mxGeometry>
        </mxCell>
        <mxCell id="T77WnbDbM9Hba829o4ZQ-24" value="1,1" style="text;html=1;align=center;verticalAlign=middle;resizable=0;points=[];autosize=1;strokeColor=none;fillColor=none;" vertex="1" parent="1">
          <mxGeometry x="1260" y="438" width="40" height="30" as="geometry" />
        </mxCell>
        <mxCell id="T77WnbDbM9Hba829o4ZQ-25" value="1,1" style="text;html=1;align=center;verticalAlign=middle;resizable=0;points=[];autosize=1;strokeColor=none;fillColor=none;" vertex="1" parent="1">
          <mxGeometry x="1260" y="310" width="40" height="30" as="geometry" />
        </mxCell>
        <mxCell id="T77WnbDbM9Hba829o4ZQ-26" value="1,n" style="text;html=1;align=center;verticalAlign=middle;resizable=0;points=[];autosize=1;strokeColor=none;fillColor=none;" vertex="1" parent="1">
          <mxGeometry x="968.75" y="-100" width="40" height="30" as="geometry" />
        </mxCell>
        <mxCell id="T77WnbDbM9Hba829o4ZQ-27" value="1,n" style="text;html=1;align=center;verticalAlign=middle;resizable=0;points=[];autosize=1;strokeColor=none;fillColor=none;" vertex="1" parent="1">
          <mxGeometry x="968.75" y="210" width="40" height="30" as="geometry" />
        </mxCell>
        <mxCell id="T77WnbDbM9Hba829o4ZQ-30" value="0,n" style="text;html=1;align=center;verticalAlign=middle;resizable=0;points=[];autosize=1;strokeColor=none;fillColor=none;" vertex="1" parent="1">
          <mxGeometry x="840" y="242.5" width="40" height="30" as="geometry" />
        </mxCell>
        <mxCell id="T77WnbDbM9Hba829o4ZQ-31" value="1,1" style="text;html=1;align=center;verticalAlign=middle;resizable=0;points=[];autosize=1;strokeColor=none;fillColor=none;" vertex="1" parent="1">
          <mxGeometry x="690" y="290" width="40" height="30" as="geometry" />
        </mxCell>
        <mxCell id="T77WnbDbM9Hba829o4ZQ-32" value="0,n" style="text;html=1;align=center;verticalAlign=middle;resizable=0;points=[];autosize=1;strokeColor=none;fillColor=none;" vertex="1" parent="1">
          <mxGeometry x="590" y="198" width="40" height="30" as="geometry" />
        </mxCell>
        <mxCell id="T77WnbDbM9Hba829o4ZQ-33" value="0,1" style="text;html=1;align=center;verticalAlign=middle;resizable=0;points=[];autosize=1;strokeColor=none;fillColor=none;" vertex="1" parent="1">
          <mxGeometry x="390" y="133" width="40" height="30" as="geometry" />
        </mxCell>
        <mxCell id="TiR6396ykjruT_jB_-4C-5" value="" style="endArrow=none;html=1;rounded=0;exitX=0.437;exitY=-0.007;exitDx=0;exitDy=0;entryX=1;entryY=1;entryDx=0;entryDy=0;exitPerimeter=0;" edge="1" parent="1" source="ktAii_2EgNVlv4ma-x-2-1" target="5Oazz_i3McC3uQw2maXA-1">
          <mxGeometry width="50" height="50" relative="1" as="geometry">
            <mxPoint x="-360" y="230" as="sourcePoint" />
            <mxPoint x="-360" y="198" as="targetPoint" />
          </mxGeometry>
        </mxCell>
        <mxCell id="TiR6396ykjruT_jB_-4C-7" value="" style="endArrow=none;html=1;rounded=0;entryX=0;entryY=0.5;entryDx=0;entryDy=0;exitX=0.75;exitY=0;exitDx=0;exitDy=0;" edge="1" parent="1" source="ktAii_2EgNVlv4ma-x-2-12" target="SL1HbyL2wO8Xgx7NEVwD-40">
          <mxGeometry width="50" height="50" relative="1" as="geometry">
            <mxPoint x="540" y="470" as="sourcePoint" />
            <mxPoint x="590" y="420" as="targetPoint" />
            <Array as="points">
              <mxPoint x="720" y="270" />
            </Array>
          </mxGeometry>
        </mxCell>
        <mxCell id="TiR6396ykjruT_jB_-4C-10" value="TrattaFermata" style="rounded=0;whiteSpace=wrap;html=1;" vertex="1" parent="1">
          <mxGeometry x="900" y="40" width="120" height="60" as="geometry" />
        </mxCell>
        <mxCell id="TiR6396ykjruT_jB_-4C-11" value="" style="endArrow=none;html=1;rounded=0;entryX=0.5;entryY=1;entryDx=0;entryDy=0;exitX=0.5;exitY=0;exitDx=0;exitDy=0;" edge="1" parent="1" source="ktAii_2EgNVlv4ma-x-2-36" target="TiR6396ykjruT_jB_-4C-10">
          <mxGeometry width="50" height="50" relative="1" as="geometry">
            <mxPoint x="820" y="290" as="sourcePoint" />
            <mxPoint x="870" y="240" as="targetPoint" />
          </mxGeometry>
        </mxCell>
        <mxCell id="TiR6396ykjruT_jB_-4C-12" value="FRT" style="rhombus;whiteSpace=wrap;html=1;" vertex="1" parent="1">
          <mxGeometry x="911.25" y="-60" width="97.5" height="52" as="geometry" />
        </mxCell>
        <mxCell id="TiR6396ykjruT_jB_-4C-13" value="" style="endArrow=none;html=1;rounded=0;entryX=0.5;entryY=1;entryDx=0;entryDy=0;exitX=0.5;exitY=0;exitDx=0;exitDy=0;" edge="1" parent="1" source="TiR6396ykjruT_jB_-4C-10" target="TiR6396ykjruT_jB_-4C-12">
          <mxGeometry width="50" height="50" relative="1" as="geometry">
            <mxPoint x="820" y="190" as="sourcePoint" />
            <mxPoint x="870" y="140" as="targetPoint" />
          </mxGeometry>
        </mxCell>
        <mxCell id="TiR6396ykjruT_jB_-4C-14" value="" style="endArrow=none;html=1;rounded=0;entryX=0.5;entryY=1;entryDx=0;entryDy=0;exitX=0.5;exitY=0;exitDx=0;exitDy=0;" edge="1" parent="1" source="TiR6396ykjruT_jB_-4C-12" target="ktAii_2EgNVlv4ma-x-2-33">
          <mxGeometry width="50" height="50" relative="1" as="geometry">
            <mxPoint x="820" y="190" as="sourcePoint" />
            <mxPoint x="870" y="140" as="targetPoint" />
          </mxGeometry>
        </mxCell>
        <mxCell id="TiR6396ykjruT_jB_-4C-15" value="1,1" style="text;html=1;align=center;verticalAlign=middle;resizable=0;points=[];autosize=1;strokeColor=none;fillColor=none;" vertex="1" parent="1">
          <mxGeometry x="960" y="108" width="40" height="30" as="geometry" />
        </mxCell>
        <mxCell id="TiR6396ykjruT_jB_-4C-16" value="1,1" style="text;html=1;align=center;verticalAlign=middle;resizable=0;points=[];autosize=1;strokeColor=none;fillColor=none;" vertex="1" parent="1">
          <mxGeometry x="960" width="40" height="30" as="geometry" />
        </mxCell>
        <mxCell id="5Oazz_i3McC3uQw2maXA-1" value="" style="ellipse;whiteSpace=wrap;html=1;aspect=fixed;" vertex="1" parent="1">
          <mxGeometry x="-370" y="188" width="7" height="7" as="geometry" />
        </mxCell>
        <mxCell id="5Oazz_i3McC3uQw2maXA-2" value="Nome" style="text;html=1;align=center;verticalAlign=middle;resizable=0;points=[];autosize=1;strokeColor=none;fillColor=none;" vertex="1" parent="1">
          <mxGeometry x="-396.5" y="165" width="60" height="30" as="geometry" />
        </mxCell>
        <mxCell id="5Oazz_i3McC3uQw2maXA-3" value="Cognome" style="text;html=1;align=center;verticalAlign=middle;resizable=0;points=[];autosize=1;strokeColor=none;fillColor=none;" vertex="1" parent="1">
          <mxGeometry x="-336.5" y="163" width="80" height="30" as="geometry" />
        </mxCell>
        <mxCell id="5Oazz_i3McC3uQw2maXA-4" value="" style="endArrow=none;html=1;rounded=0;exitX=0.833;exitY=0.013;exitDx=0;exitDy=0;entryX=1;entryY=1;entryDx=0;entryDy=0;exitPerimeter=0;" edge="1" parent="1" source="ktAii_2EgNVlv4ma-x-2-1" target="5Oazz_i3McC3uQw2maXA-5">
          <mxGeometry width="50" height="50" relative="1" as="geometry">
            <mxPoint x="-281.5" y="220" as="sourcePoint" />
            <mxPoint x="-301.5" y="198" as="targetPoint" />
          </mxGeometry>
        </mxCell>
        <mxCell id="5Oazz_i3McC3uQw2maXA-5" value="" style="ellipse;whiteSpace=wrap;html=1;aspect=fixed;" vertex="1" parent="1">
          <mxGeometry x="-311.5" y="188" width="7" height="7" as="geometry" />
        </mxCell>
        <mxCell id="5Oazz_i3McC3uQw2maXA-6" value="" style="endArrow=none;html=1;rounded=0;exitX=0.003;exitY=0.36;exitDx=0;exitDy=0;entryX=1;entryY=1;entryDx=0;entryDy=0;exitPerimeter=0;" edge="1" parent="1" source="ktAii_2EgNVlv4ma-x-2-1" target="5Oazz_i3McC3uQw2maXA-7">
          <mxGeometry width="50" height="50" relative="1" as="geometry">
            <mxPoint x="-400" y="247.5" as="sourcePoint" />
            <mxPoint x="-420" y="225.5" as="targetPoint" />
          </mxGeometry>
        </mxCell>
        <mxCell id="5Oazz_i3McC3uQw2maXA-7" value="" style="ellipse;whiteSpace=wrap;html=1;aspect=fixed;" vertex="1" parent="1">
          <mxGeometry x="-430" y="215.5" width="7" height="7" as="geometry" />
        </mxCell>
        <mxCell id="5Oazz_i3McC3uQw2maXA-8" value="Data di nascita" style="text;html=1;align=center;verticalAlign=middle;resizable=0;points=[];autosize=1;strokeColor=none;fillColor=none;" vertex="1" parent="1">
          <mxGeometry x="-530" y="204" width="100" height="30" as="geometry" />
        </mxCell>
        <mxCell id="5Oazz_i3McC3uQw2maXA-9" value="" style="endArrow=none;html=1;rounded=0;exitX=0.007;exitY=0.927;exitDx=0;exitDy=0;entryX=1;entryY=1;entryDx=0;entryDy=0;exitPerimeter=0;" edge="1" parent="1" source="ktAii_2EgNVlv4ma-x-2-1" target="5Oazz_i3McC3uQw2maXA-10">
          <mxGeometry width="50" height="50" relative="1" as="geometry">
            <mxPoint x="-400" y="280" as="sourcePoint" />
            <mxPoint x="-420" y="258" as="targetPoint" />
          </mxGeometry>
        </mxCell>
        <mxCell id="5Oazz_i3McC3uQw2maXA-10" value="" style="ellipse;whiteSpace=wrap;html=1;aspect=fixed;" vertex="1" parent="1">
          <mxGeometry x="-443.5" y="273" width="7" height="7" as="geometry" />
        </mxCell>
        <mxCell id="5Oazz_i3McC3uQw2maXA-12" value="Luogo di nascita" style="text;html=1;align=center;verticalAlign=middle;resizable=0;points=[];autosize=1;strokeColor=none;fillColor=none;" vertex="1" parent="1">
          <mxGeometry x="-540" y="255" width="110" height="30" as="geometry" />
        </mxCell>
        <mxCell id="5Oazz_i3McC3uQw2maXA-13" value="&lt;font style=&quot;font-size: 10px;&quot;&gt;Sesso&lt;/font&gt;" style="text;html=1;align=center;verticalAlign=middle;resizable=0;points=[];autosize=1;strokeColor=none;fillColor=none;" vertex="1" parent="1">
          <mxGeometry x="-478" y="317" width="50" height="30" as="geometry" />
        </mxCell>
        <mxCell id="5Oazz_i3McC3uQw2maXA-14" value="" style="endArrow=none;html=1;rounded=0;exitX=0.153;exitY=1;exitDx=0;exitDy=0;entryX=1;entryY=1;entryDx=0;entryDy=0;exitPerimeter=0;" edge="1" parent="1" source="ktAii_2EgNVlv4ma-x-2-1" target="5Oazz_i3McC3uQw2maXA-15">
          <mxGeometry width="50" height="50" relative="1" as="geometry">
            <mxPoint x="-410" y="372" as="sourcePoint" />
            <mxPoint x="-430" y="350" as="targetPoint" />
          </mxGeometry>
        </mxCell>
        <mxCell id="5Oazz_i3McC3uQw2maXA-15" value="" style="ellipse;whiteSpace=wrap;html=1;aspect=fixed;" vertex="1" parent="1">
          <mxGeometry x="-440" y="340" width="7" height="7" as="geometry" />
        </mxCell>
        <mxCell id="5Oazz_i3McC3uQw2maXA-16" value="&lt;font style=&quot;font-size: 10px;&quot;&gt;Cellulare&lt;/font&gt;" style="text;html=1;align=center;verticalAlign=middle;resizable=0;points=[];autosize=1;strokeColor=none;fillColor=none;" vertex="1" parent="1">
          <mxGeometry x="-408" y="317" width="60" height="30" as="geometry" />
        </mxCell>
        <mxCell id="5Oazz_i3McC3uQw2maXA-23" value="" style="endArrow=none;html=1;rounded=0;exitX=0.313;exitY=1.017;exitDx=0;exitDy=0;entryX=1;entryY=0;entryDx=0;entryDy=0;exitPerimeter=0;" edge="1" parent="1" source="ktAii_2EgNVlv4ma-x-2-1" target="5Oazz_i3McC3uQw2maXA-24">
          <mxGeometry width="50" height="50" relative="1" as="geometry">
            <mxPoint x="-372" y="290" as="sourcePoint" />
            <mxPoint x="-420" y="360" as="targetPoint" />
          </mxGeometry>
        </mxCell>
        <mxCell id="5Oazz_i3McC3uQw2maXA-24" value="" style="ellipse;whiteSpace=wrap;html=1;aspect=fixed;" vertex="1" parent="1">
          <mxGeometry x="-387" y="313" width="7" height="7" as="geometry" />
        </mxCell>
        <mxCell id="5Oazz_i3McC3uQw2maXA-27" value="" style="endArrow=none;html=1;rounded=0;exitX=0.992;exitY=0.351;exitDx=0;exitDy=0;entryX=1;entryY=1;entryDx=0;entryDy=0;exitPerimeter=0;" edge="1" parent="1" source="ktAii_2EgNVlv4ma-x-2-1" target="5Oazz_i3McC3uQw2maXA-28">
          <mxGeometry width="50" height="50" relative="1" as="geometry">
            <mxPoint x="-222" y="233" as="sourcePoint" />
            <mxPoint x="-270" y="303" as="targetPoint" />
          </mxGeometry>
        </mxCell>
        <mxCell id="5Oazz_i3McC3uQw2maXA-28" value="" style="ellipse;whiteSpace=wrap;html=1;aspect=fixed;" vertex="1" parent="1">
          <mxGeometry x="-243.5" y="242.5" width="7" height="7" as="geometry" />
        </mxCell>
        <mxCell id="5Oazz_i3McC3uQw2maXA-29" value="&lt;font style=&quot;font-size: 9px;&quot;&gt;Password&lt;/font&gt;" style="text;html=1;align=center;verticalAlign=middle;resizable=0;points=[];autosize=1;strokeColor=none;fillColor=none;" vertex="1" parent="1">
          <mxGeometry x="-270" y="217.5" width="60" height="30" as="geometry" />
        </mxCell>
        <mxCell id="5Oazz_i3McC3uQw2maXA-30" value="genera" style="rhombus;whiteSpace=wrap;html=1;" vertex="1" parent="1">
          <mxGeometry x="185" width="70" height="65" as="geometry" />
        </mxCell>
        <mxCell id="5Oazz_i3McC3uQw2maXA-31" value="" style="endArrow=none;html=1;rounded=0;entryX=0.5;entryY=1;entryDx=0;entryDy=0;exitX=0.5;exitY=0;exitDx=0;exitDy=0;" edge="1" parent="1" source="SL1HbyL2wO8Xgx7NEVwD-15" target="5Oazz_i3McC3uQw2maXA-30">
          <mxGeometry width="50" height="50" relative="1" as="geometry">
            <mxPoint x="90" y="150" as="sourcePoint" />
            <mxPoint x="140" y="100" as="targetPoint" />
          </mxGeometry>
        </mxCell>
        <mxCell id="5Oazz_i3McC3uQw2maXA-33" value="StoricoAcquisti" style="rounded=0;whiteSpace=wrap;html=1;" vertex="1" parent="1">
          <mxGeometry x="160" y="-120" width="120" height="60" as="geometry" />
        </mxCell>
        <mxCell id="5Oazz_i3McC3uQw2maXA-34" value="" style="endArrow=none;html=1;rounded=0;entryX=0.5;entryY=1;entryDx=0;entryDy=0;exitX=0.5;exitY=0;exitDx=0;exitDy=0;" edge="1" parent="1" source="5Oazz_i3McC3uQw2maXA-30" target="5Oazz_i3McC3uQw2maXA-33">
          <mxGeometry width="50" height="50" relative="1" as="geometry">
            <mxPoint x="90" y="150" as="sourcePoint" />
            <mxPoint x="140" y="100" as="targetPoint" />
          </mxGeometry>
        </mxCell>
        <mxCell id="5Oazz_i3McC3uQw2maXA-36" value="" style="endArrow=none;html=1;rounded=0;exitX=1.011;exitY=0.861;exitDx=0;exitDy=0;entryX=1;entryY=1;entryDx=0;entryDy=0;exitPerimeter=0;" edge="1" parent="1" source="ktAii_2EgNVlv4ma-x-2-1" target="5Oazz_i3McC3uQw2maXA-37">
          <mxGeometry width="50" height="50" relative="1" as="geometry">
            <mxPoint x="-289.44000000000017" y="269.9599999999998" as="sourcePoint" />
            <mxPoint x="-263.5" y="359.5" as="targetPoint" />
          </mxGeometry>
        </mxCell>
        <mxCell id="5Oazz_i3McC3uQw2maXA-37" value="" style="ellipse;whiteSpace=wrap;html=1;aspect=fixed;" vertex="1" parent="1">
          <mxGeometry x="-237" y="299" width="7" height="7" as="geometry" />
        </mxCell>
        <mxCell id="5Oazz_i3McC3uQw2maXA-38" value="&lt;font style=&quot;font-size: 5px;&quot;&gt;Residenza&lt;/font&gt;" style="text;html=1;align=center;verticalAlign=middle;resizable=0;points=[];autosize=1;strokeColor=none;fillColor=none;" vertex="1" parent="1">
          <mxGeometry x="-250" y="243" width="50" height="30" as="geometry" />
        </mxCell>
        <mxCell id="5Oazz_i3McC3uQw2maXA-39" value="&lt;font style=&quot;font-size: 8px;&quot;&gt;Indirizzo&lt;/font&gt;" style="text;html=1;align=center;verticalAlign=middle;resizable=0;points=[];autosize=1;strokeColor=none;fillColor=none;" vertex="1" parent="1">
          <mxGeometry x="-256.5" y="276" width="50" height="30" as="geometry" />
        </mxCell>
        <mxCell id="5Oazz_i3McC3uQw2maXA-40" value="" style="endArrow=none;html=1;rounded=0;exitX=0.993;exitY=0.626;exitDx=0;exitDy=0;entryX=1;entryY=1;entryDx=0;entryDy=0;exitPerimeter=0;" edge="1" parent="1" source="ktAii_2EgNVlv4ma-x-2-1" target="5Oazz_i3McC3uQw2maXA-41">
          <mxGeometry width="50" height="50" relative="1" as="geometry">
            <mxPoint x="-274.99999999999994" y="258.7199999999998" as="sourcePoint" />
            <mxPoint x="-254.96" y="326.5" as="targetPoint" />
          </mxGeometry>
        </mxCell>
        <mxCell id="5Oazz_i3McC3uQw2maXA-41" value="" style="ellipse;whiteSpace=wrap;html=1;aspect=fixed;" vertex="1" parent="1">
          <mxGeometry x="-228.46" y="266" width="7" height="7" as="geometry" />
        </mxCell>
        <mxCell id="5Oazz_i3McC3uQw2maXA-42" value="&lt;font style=&quot;font-size: 8px;&quot;&gt;Email&lt;/font&gt;" style="text;html=1;align=center;verticalAlign=middle;resizable=0;points=[];autosize=1;strokeColor=none;fillColor=none;" vertex="1" parent="1">
          <mxGeometry x="-325" y="438" width="40" height="30" as="geometry" />
        </mxCell>
        <mxCell id="5Oazz_i3McC3uQw2maXA-43" value="&lt;font style=&quot;font-size: 10px;&quot;&gt;Stipendio&lt;/font&gt;" style="text;html=1;align=center;verticalAlign=middle;resizable=0;points=[];autosize=1;strokeColor=none;fillColor=none;" vertex="1" parent="1">
          <mxGeometry x="-470" y="791.5" width="70" height="30" as="geometry" />
        </mxCell>
        <mxCell id="5Oazz_i3McC3uQw2maXA-44" value="" style="endArrow=none;html=1;rounded=0;exitX=0.535;exitY=1.01;exitDx=0;exitDy=0;entryX=1;entryY=0;entryDx=0;entryDy=0;exitPerimeter=0;" edge="1" parent="1" source="ktAii_2EgNVlv4ma-x-2-4" target="5Oazz_i3McC3uQw2maXA-45">
          <mxGeometry width="50" height="50" relative="1" as="geometry">
            <mxPoint x="-405" y="775.5" as="sourcePoint" />
            <mxPoint x="-463" y="854.5" as="targetPoint" />
          </mxGeometry>
        </mxCell>
        <mxCell id="5Oazz_i3McC3uQw2maXA-45" value="" style="ellipse;whiteSpace=wrap;html=1;aspect=fixed;" vertex="1" parent="1">
          <mxGeometry x="-447" y="791.5" width="7" height="7" as="geometry" />
        </mxCell>
        <mxCell id="5Oazz_i3McC3uQw2maXA-46" value="&lt;font style=&quot;font-size: 9px;&quot;&gt;Ruolo&lt;/font&gt;" style="text;html=1;align=center;verticalAlign=middle;resizable=0;points=[];autosize=1;strokeColor=none;fillColor=none;" vertex="1" parent="1">
          <mxGeometry x="-360" y="760" width="50" height="30" as="geometry" />
        </mxCell>
        <mxCell id="5Oazz_i3McC3uQw2maXA-47" value="" style="endArrow=none;html=1;rounded=0;exitX=1.003;exitY=0.833;exitDx=0;exitDy=0;entryX=0;entryY=0;entryDx=0;entryDy=0;exitPerimeter=0;" edge="1" parent="1" source="ktAii_2EgNVlv4ma-x-2-4" target="5Oazz_i3McC3uQw2maXA-48">
          <mxGeometry width="50" height="50" relative="1" as="geometry">
            <mxPoint x="-380" y="774.74" as="sourcePoint" />
            <mxPoint x="-337.52512626584723" y="815.2651262658471" as="targetPoint" />
          </mxGeometry>
        </mxCell>
        <mxCell id="5Oazz_i3McC3uQw2maXA-48" value="" style="ellipse;whiteSpace=wrap;html=1;aspect=fixed;" vertex="1" parent="1">
          <mxGeometry x="-355" y="773" width="7" height="7" as="geometry" />
        </mxCell>
        <mxCell id="5Oazz_i3McC3uQw2maXA-49" value="&lt;font style=&quot;font-size: 10px;&quot;&gt;CodTreno&lt;/font&gt;" style="text;html=1;align=center;verticalAlign=middle;resizable=0;points=[];autosize=1;strokeColor=none;fillColor=none;" vertex="1" parent="1">
          <mxGeometry x="-548" y="791.5" width="70" height="30" as="geometry" />
        </mxCell>
        <mxCell id="5Oazz_i3McC3uQw2maXA-50" value="" style="endArrow=none;html=1;rounded=0;exitX=0.313;exitY=1.017;exitDx=0;exitDy=0;entryX=1;entryY=0;entryDx=0;entryDy=0;exitPerimeter=0;" edge="1" parent="1" target="5Oazz_i3McC3uQw2maXA-51">
          <mxGeometry width="50" height="50" relative="1" as="geometry">
            <mxPoint x="-475" y="761.5" as="sourcePoint" />
            <mxPoint x="-533" y="840.5" as="targetPoint" />
          </mxGeometry>
        </mxCell>
        <mxCell id="5Oazz_i3McC3uQw2maXA-51" value="" style="ellipse;whiteSpace=wrap;html=1;aspect=fixed;" vertex="1" parent="1">
          <mxGeometry x="-500" y="793.5" width="7" height="7" as="geometry" />
        </mxCell>
        <mxCell id="5Oazz_i3McC3uQw2maXA-57" value="" style="ellipse;whiteSpace=wrap;html=1;aspect=fixed;" vertex="1" parent="1">
          <mxGeometry x="-304.5" y="438" width="7" height="7" as="geometry" />
        </mxCell>
        <mxCell id="5Oazz_i3McC3uQw2maXA-58" value="" style="endArrow=none;html=1;rounded=0;entryX=0.146;entryY=1.004;entryDx=0;entryDy=0;entryPerimeter=0;exitX=1;exitY=0;exitDx=0;exitDy=0;" edge="1" parent="1" source="5Oazz_i3McC3uQw2maXA-57" target="ktAii_2EgNVlv4ma-x-2-3">
          <mxGeometry width="50" height="50" relative="1" as="geometry">
            <mxPoint x="-280" y="510" as="sourcePoint" />
            <mxPoint x="-230" y="460" as="targetPoint" />
          </mxGeometry>
        </mxCell>
        <mxCell id="5Oazz_i3McC3uQw2maXA-61" value="" style="ellipse;whiteSpace=wrap;html=1;aspect=fixed;" vertex="1" parent="1">
          <mxGeometry x="-197" y="443" width="7" height="7" as="geometry" />
        </mxCell>
        <mxCell id="5Oazz_i3McC3uQw2maXA-64" value="" style="endArrow=none;html=1;rounded=0;entryX=0.75;entryY=1;entryDx=0;entryDy=0;exitX=0;exitY=0;exitDx=0;exitDy=0;" edge="1" parent="1" source="5Oazz_i3McC3uQw2maXA-61" target="ktAii_2EgNVlv4ma-x-2-3">
          <mxGeometry width="50" height="50" relative="1" as="geometry">
            <mxPoint x="-300" y="450" as="sourcePoint" />
            <mxPoint x="-250" y="400" as="targetPoint" />
          </mxGeometry>
        </mxCell>
        <mxCell id="5Oazz_i3McC3uQw2maXA-65" value="&lt;font style=&quot;font-size: 8px;&quot;&gt;Bilancio&lt;/font&gt;" style="text;html=1;align=center;verticalAlign=middle;resizable=0;points=[];autosize=1;strokeColor=none;fillColor=none;" vertex="1" parent="1">
          <mxGeometry x="-200" y="420" width="50" height="30" as="geometry" />
        </mxCell>
        <mxCell id="5Oazz_i3McC3uQw2maXA-68" value="" style="ellipse;whiteSpace=wrap;html=1;aspect=fixed;" vertex="1" parent="1">
          <mxGeometry x="317" y="192.5" width="7" height="7" as="geometry" />
        </mxCell>
        <mxCell id="5Oazz_i3McC3uQw2maXA-69" value="" style="endArrow=none;html=1;rounded=0;entryX=0.146;entryY=0.986;entryDx=0;entryDy=0;entryPerimeter=0;" edge="1" parent="1" source="5Oazz_i3McC3uQw2maXA-70" target="SL1HbyL2wO8Xgx7NEVwD-15">
          <mxGeometry width="50" height="50" relative="1" as="geometry">
            <mxPoint x="160" y="210" as="sourcePoint" />
            <mxPoint x="170" y="225" as="targetPoint" />
          </mxGeometry>
        </mxCell>
        <mxCell id="5Oazz_i3McC3uQw2maXA-70" value="" style="shape=waypoint;sketch=0;fillStyle=solid;size=6;pointerEvents=1;points=[];fillColor=none;resizable=0;rotatable=0;perimeter=centerPerimeter;snapToPoint=1;" vertex="1" parent="1">
          <mxGeometry x="130" y="204" width="20" height="20" as="geometry" />
        </mxCell>
        <mxCell id="5Oazz_i3McC3uQw2maXA-71" value="&lt;font style=&quot;font-size: 9px;&quot;&gt;IDPagamento&lt;/font&gt;" style="text;html=1;align=center;verticalAlign=middle;resizable=0;points=[];autosize=1;strokeColor=none;fillColor=none;" vertex="1" parent="1">
          <mxGeometry x="90" y="210" width="80" height="30" as="geometry" />
        </mxCell>
        <mxCell id="5Oazz_i3McC3uQw2maXA-72" value="&lt;font style=&quot;font-size: 10px;&quot;&gt;Tipo&lt;/font&gt;" style="text;html=1;align=center;verticalAlign=middle;resizable=0;points=[];autosize=1;strokeColor=none;fillColor=none;" vertex="1" parent="1">
          <mxGeometry x="320" y="181" width="40" height="30" as="geometry" />
        </mxCell>
        <mxCell id="5Oazz_i3McC3uQw2maXA-75" value="" style="endArrow=none;html=1;rounded=0;entryX=1;entryY=0.75;entryDx=0;entryDy=0;exitX=0;exitY=0;exitDx=0;exitDy=0;" edge="1" parent="1" source="5Oazz_i3McC3uQw2maXA-68" target="SL1HbyL2wO8Xgx7NEVwD-15">
          <mxGeometry width="50" height="50" relative="1" as="geometry">
            <mxPoint x="220" y="230" as="sourcePoint" />
            <mxPoint x="270" y="180" as="targetPoint" />
          </mxGeometry>
        </mxCell>
        <mxCell id="5Oazz_i3McC3uQw2maXA-76" value="" style="ellipse;whiteSpace=wrap;html=1;aspect=fixed;" vertex="1" parent="1">
          <mxGeometry x="257" y="224.5" width="7" height="7" as="geometry" />
        </mxCell>
        <mxCell id="5Oazz_i3McC3uQw2maXA-77" value="" style="endArrow=none;html=1;rounded=0;entryX=0.584;entryY=1.005;entryDx=0;entryDy=0;exitX=0;exitY=0;exitDx=0;exitDy=0;entryPerimeter=0;" edge="1" parent="1" source="5Oazz_i3McC3uQw2maXA-76" target="SL1HbyL2wO8Xgx7NEVwD-15">
          <mxGeometry width="50" height="50" relative="1" as="geometry">
            <mxPoint x="160" y="262" as="sourcePoint" />
            <mxPoint x="220" y="210" as="targetPoint" />
          </mxGeometry>
        </mxCell>
        <mxCell id="5Oazz_i3McC3uQw2maXA-78" value="&lt;font style=&quot;font-size: 8px;&quot;&gt;IDCliente&lt;/font&gt;" style="text;html=1;align=center;verticalAlign=middle;resizable=0;points=[];autosize=1;strokeColor=none;fillColor=none;" vertex="1" parent="1">
          <mxGeometry x="240" y="224" width="60" height="30" as="geometry" />
        </mxCell>
        <mxCell id="5Oazz_i3McC3uQw2maXA-79" value="" style="ellipse;whiteSpace=wrap;html=1;aspect=fixed;" vertex="1" parent="1">
          <mxGeometry x="213" y="217.5" width="7" height="7" as="geometry" />
        </mxCell>
        <mxCell id="5Oazz_i3McC3uQw2maXA-80" value="" style="endArrow=none;html=1;rounded=0;entryX=0.339;entryY=1.009;entryDx=0;entryDy=0;exitX=0;exitY=0;exitDx=0;exitDy=0;entryPerimeter=0;" edge="1" parent="1" source="5Oazz_i3McC3uQw2maXA-79" target="SL1HbyL2wO8Xgx7NEVwD-15">
          <mxGeometry width="50" height="50" relative="1" as="geometry">
            <mxPoint x="116" y="270.5" as="sourcePoint" />
            <mxPoint x="186" y="201.5" as="targetPoint" />
          </mxGeometry>
        </mxCell>
        <mxCell id="5Oazz_i3McC3uQw2maXA-81" value="&lt;font style=&quot;font-size: 10px;&quot;&gt;Totale&lt;/font&gt;" style="text;html=1;align=center;verticalAlign=middle;resizable=0;points=[];autosize=1;strokeColor=none;fillColor=none;" vertex="1" parent="1">
          <mxGeometry x="195" y="215.5" width="50" height="30" as="geometry" />
        </mxCell>
        <mxCell id="5Oazz_i3McC3uQw2maXA-84" value="" style="ellipse;whiteSpace=wrap;html=1;aspect=fixed;" vertex="1" parent="1">
          <mxGeometry x="273" y="108" width="7" height="7" as="geometry" />
        </mxCell>
        <mxCell id="5Oazz_i3McC3uQw2maXA-85" value="" style="endArrow=none;html=1;rounded=0;entryX=0.75;entryY=0;entryDx=0;entryDy=0;exitX=0;exitY=1;exitDx=0;exitDy=0;" edge="1" parent="1" source="5Oazz_i3McC3uQw2maXA-84" target="SL1HbyL2wO8Xgx7NEVwD-15">
          <mxGeometry width="50" height="50" relative="1" as="geometry">
            <mxPoint x="310" y="110" as="sourcePoint" />
            <mxPoint x="286" y="80" as="targetPoint" />
          </mxGeometry>
        </mxCell>
        <mxCell id="5Oazz_i3McC3uQw2maXA-86" value="&lt;font style=&quot;font-size: 10px;&quot;&gt;Ora&lt;/font&gt;" style="text;html=1;align=center;verticalAlign=middle;resizable=0;points=[];autosize=1;strokeColor=none;fillColor=none;" vertex="1" parent="1">
          <mxGeometry x="270" y="90" width="40" height="30" as="geometry" />
        </mxCell>
        <mxCell id="5Oazz_i3McC3uQw2maXA-87" value="0,1" style="text;html=1;align=center;verticalAlign=middle;resizable=0;points=[];autosize=1;strokeColor=none;fillColor=none;" vertex="1" parent="1">
          <mxGeometry x="213" y="85" width="40" height="30" as="geometry" />
        </mxCell>
        <mxCell id="5Oazz_i3McC3uQw2maXA-88" value="0,n" style="text;html=1;align=center;verticalAlign=middle;resizable=0;points=[];autosize=1;strokeColor=none;fillColor=none;" vertex="1" parent="1">
          <mxGeometry x="215" y="-61" width="40" height="30" as="geometry" />
        </mxCell>
        <mxCell id="5Oazz_i3McC3uQw2maXA-89" value="IDTessera" style="text;html=1;align=center;verticalAlign=middle;resizable=0;points=[];autosize=1;strokeColor=none;fillColor=none;" vertex="1" parent="1">
          <mxGeometry y="302.5" width="80" height="30" as="geometry" />
        </mxCell>
        <mxCell id="5Oazz_i3McC3uQw2maXA-94" value="" style="ellipse;whiteSpace=wrap;html=1;aspect=fixed;" vertex="1" parent="1">
          <mxGeometry x="100" y="328.5" width="7" height="7" as="geometry" />
        </mxCell>
        <mxCell id="5Oazz_i3McC3uQw2maXA-98" value="" style="endArrow=none;html=1;rounded=0;entryX=0.5;entryY=1;entryDx=0;entryDy=0;exitX=0.5;exitY=0;exitDx=0;exitDy=0;" edge="1" parent="1" source="ktAii_2EgNVlv4ma-x-2-17" target="5Oazz_i3McC3uQw2maXA-94">
          <mxGeometry width="50" height="50" relative="1" as="geometry">
            <mxPoint x="80" y="390" as="sourcePoint" />
            <mxPoint x="130" y="340" as="targetPoint" />
          </mxGeometry>
        </mxCell>
        <mxCell id="5Oazz_i3McC3uQw2maXA-99" value="&lt;font style=&quot;font-size: 8px;&quot;&gt;Data emissione&lt;/font&gt;" style="text;html=1;align=center;verticalAlign=middle;resizable=0;points=[];autosize=1;strokeColor=none;fillColor=none;" vertex="1" parent="1">
          <mxGeometry x="70" y="305.5" width="80" height="30" as="geometry" />
        </mxCell>
        <mxCell id="5Oazz_i3McC3uQw2maXA-102" value="" style="ellipse;whiteSpace=wrap;html=1;aspect=fixed;" vertex="1" parent="1">
          <mxGeometry x="143" y="340" width="7" height="7" as="geometry" />
        </mxCell>
        <mxCell id="5Oazz_i3McC3uQw2maXA-103" value="" style="endArrow=none;html=1;rounded=0;entryX=0.5;entryY=1;entryDx=0;entryDy=0;exitX=0.728;exitY=0.004;exitDx=0;exitDy=0;exitPerimeter=0;" edge="1" parent="1" source="ktAii_2EgNVlv4ma-x-2-17" target="5Oazz_i3McC3uQw2maXA-102">
          <mxGeometry width="50" height="50" relative="1" as="geometry">
            <mxPoint x="136.5" y="355" as="sourcePoint" />
            <mxPoint x="166.5" y="335" as="targetPoint" />
          </mxGeometry>
        </mxCell>
        <mxCell id="5Oazz_i3McC3uQw2maXA-105" value="&lt;font style=&quot;font-size: 8px;&quot;&gt;Data scadenza&lt;/font&gt;" style="text;html=1;align=center;verticalAlign=middle;resizable=0;points=[];autosize=1;strokeColor=none;fillColor=none;" vertex="1" parent="1">
          <mxGeometry x="133" y="320" width="80" height="30" as="geometry" />
        </mxCell>
        <mxCell id="5Oazz_i3McC3uQw2maXA-111" value="" style="ellipse;whiteSpace=wrap;html=1;aspect=fixed;" vertex="1" parent="1">
          <mxGeometry x="126.5" y="438" width="7" height="7" as="geometry" />
        </mxCell>
        <mxCell id="5Oazz_i3McC3uQw2maXA-115" value="" style="endArrow=none;html=1;rounded=0;entryX=0.75;entryY=1;entryDx=0;entryDy=0;exitX=0.5;exitY=0;exitDx=0;exitDy=0;" edge="1" parent="1" source="5Oazz_i3McC3uQw2maXA-111" target="ktAii_2EgNVlv4ma-x-2-17">
          <mxGeometry width="50" height="50" relative="1" as="geometry">
            <mxPoint x="60" y="450" as="sourcePoint" />
            <mxPoint x="110" y="400" as="targetPoint" />
          </mxGeometry>
        </mxCell>
        <mxCell id="5Oazz_i3McC3uQw2maXA-116" value="&lt;font style=&quot;font-size: 8px;&quot;&gt;IDCliente&lt;/font&gt;" style="text;html=1;align=center;verticalAlign=middle;resizable=0;points=[];autosize=1;strokeColor=none;fillColor=none;" vertex="1" parent="1">
          <mxGeometry x="120" y="420" width="60" height="30" as="geometry" />
        </mxCell>
        <mxCell id="5Oazz_i3McC3uQw2maXA-117" value="" style="ellipse;whiteSpace=wrap;html=1;aspect=fixed;" vertex="1" parent="1">
          <mxGeometry x="220" y="600.75" width="7" height="7" as="geometry" />
        </mxCell>
        <mxCell id="5Oazz_i3McC3uQw2maXA-118" value="" style="endArrow=none;html=1;rounded=0;entryX=0.141;entryY=0.999;entryDx=0;entryDy=0;entryPerimeter=0;exitX=0.639;exitY=0.625;exitDx=0;exitDy=0;exitPerimeter=0;" edge="1" parent="1" source="5Oazz_i3McC3uQw2maXA-119" target="SL1HbyL2wO8Xgx7NEVwD-25">
          <mxGeometry width="50" height="50" relative="1" as="geometry">
            <mxPoint x="90" y="627" as="sourcePoint" />
            <mxPoint x="128" y="605.25" as="targetPoint" />
          </mxGeometry>
        </mxCell>
        <mxCell id="5Oazz_i3McC3uQw2maXA-119" value="" style="shape=waypoint;sketch=0;fillStyle=solid;size=6;pointerEvents=1;points=[];fillColor=none;resizable=0;rotatable=0;perimeter=centerPerimeter;snapToPoint=1;" vertex="1" parent="1">
          <mxGeometry x="73" y="599.25" width="20" height="20" as="geometry" />
        </mxCell>
        <mxCell id="5Oazz_i3McC3uQw2maXA-120" value="&lt;font style=&quot;font-size: 7px;&quot;&gt;IDRimborso&lt;/font&gt;" style="text;html=1;align=center;verticalAlign=middle;resizable=0;points=[];autosize=1;strokeColor=none;fillColor=none;" vertex="1" parent="1">
          <mxGeometry x="47" y="600.75" width="60" height="30" as="geometry" />
        </mxCell>
        <mxCell id="5Oazz_i3McC3uQw2maXA-122" value="" style="endArrow=none;html=1;rounded=0;entryX=0.79;entryY=1.002;entryDx=0;entryDy=0;exitX=0;exitY=0;exitDx=0;exitDy=0;entryPerimeter=0;" edge="1" parent="1" source="5Oazz_i3McC3uQw2maXA-117" target="SL1HbyL2wO8Xgx7NEVwD-25">
          <mxGeometry width="50" height="50" relative="1" as="geometry">
            <mxPoint x="170" y="643.25" as="sourcePoint" />
            <mxPoint x="230" y="591.25" as="targetPoint" />
          </mxGeometry>
        </mxCell>
        <mxCell id="5Oazz_i3McC3uQw2maXA-123" value="" style="ellipse;whiteSpace=wrap;html=1;aspect=fixed;" vertex="1" parent="1">
          <mxGeometry x="178" y="614.75" width="7" height="7" as="geometry" />
        </mxCell>
        <mxCell id="5Oazz_i3McC3uQw2maXA-124" value="" style="endArrow=none;html=1;rounded=0;entryX=0.5;entryY=1;entryDx=0;entryDy=0;exitX=0;exitY=0;exitDx=0;exitDy=0;" edge="1" parent="1" source="5Oazz_i3McC3uQw2maXA-123" target="SL1HbyL2wO8Xgx7NEVwD-25">
          <mxGeometry width="50" height="50" relative="1" as="geometry">
            <mxPoint x="110" y="675.25" as="sourcePoint" />
            <mxPoint x="180" y="606.25" as="targetPoint" />
          </mxGeometry>
        </mxCell>
        <mxCell id="5Oazz_i3McC3uQw2maXA-125" value="&lt;font style=&quot;font-size: 8px;&quot;&gt;IDRichiedente&lt;/font&gt;" style="text;html=1;align=center;verticalAlign=middle;resizable=0;points=[];autosize=1;strokeColor=none;fillColor=none;" vertex="1" parent="1">
          <mxGeometry x="150" y="610" width="70" height="30" as="geometry" />
        </mxCell>
        <mxCell id="5Oazz_i3McC3uQw2maXA-126" value="" style="ellipse;whiteSpace=wrap;html=1;aspect=fixed;" vertex="1" parent="1">
          <mxGeometry x="126" y="603" width="7" height="7" as="geometry" />
        </mxCell>
        <mxCell id="5Oazz_i3McC3uQw2maXA-127" value="" style="endArrow=none;html=1;rounded=0;entryX=0.25;entryY=1;entryDx=0;entryDy=0;exitX=0;exitY=0;exitDx=0;exitDy=0;" edge="1" parent="1" source="5Oazz_i3McC3uQw2maXA-126" target="SL1HbyL2wO8Xgx7NEVwD-25">
          <mxGeometry width="50" height="50" relative="1" as="geometry">
            <mxPoint x="66" y="683.75" as="sourcePoint" />
            <mxPoint x="151" y="607.25" as="targetPoint" />
          </mxGeometry>
        </mxCell>
        <mxCell id="5Oazz_i3McC3uQw2maXA-128" value="&lt;font style=&quot;font-size: 8px;&quot;&gt;Totale&lt;/font&gt;" style="text;html=1;align=center;verticalAlign=middle;resizable=0;points=[];autosize=1;strokeColor=none;fillColor=none;" vertex="1" parent="1">
          <mxGeometry x="109.5" y="600.75" width="40" height="30" as="geometry" />
        </mxCell>
        <mxCell id="5Oazz_i3McC3uQw2maXA-130" value="" style="ellipse;whiteSpace=wrap;html=1;aspect=fixed;" vertex="1" parent="1">
          <mxGeometry x="313" y="108" width="7" height="7" as="geometry" />
        </mxCell>
        <mxCell id="5Oazz_i3McC3uQw2maXA-131" value="" style="endArrow=none;html=1;rounded=0;entryX=1;entryY=0;entryDx=0;entryDy=0;exitX=0;exitY=1;exitDx=0;exitDy=0;" edge="1" parent="1" source="5Oazz_i3McC3uQw2maXA-130" target="SL1HbyL2wO8Xgx7NEVwD-15">
          <mxGeometry width="50" height="50" relative="1" as="geometry">
            <mxPoint x="350" y="110" as="sourcePoint" />
            <mxPoint x="290" y="133" as="targetPoint" />
          </mxGeometry>
        </mxCell>
        <mxCell id="5Oazz_i3McC3uQw2maXA-132" value="&lt;font style=&quot;font-size: 10px;&quot;&gt;Data&lt;/font&gt;" style="text;html=1;align=center;verticalAlign=middle;resizable=0;points=[];autosize=1;strokeColor=none;fillColor=none;" vertex="1" parent="1">
          <mxGeometry x="310" y="90" width="40" height="30" as="geometry" />
        </mxCell>
        <mxCell id="5Oazz_i3McC3uQw2maXA-133" value="" style="ellipse;whiteSpace=wrap;html=1;aspect=fixed;" vertex="1" parent="1">
          <mxGeometry x="216.5" y="497.5" width="7" height="7" as="geometry" />
        </mxCell>
        <mxCell id="5Oazz_i3McC3uQw2maXA-134" value="" style="endArrow=none;html=1;rounded=0;entryX=0.75;entryY=0;entryDx=0;entryDy=0;exitX=0;exitY=1;exitDx=0;exitDy=0;" edge="1" parent="1" source="5Oazz_i3McC3uQw2maXA-133" target="SL1HbyL2wO8Xgx7NEVwD-25">
          <mxGeometry width="50" height="50" relative="1" as="geometry">
            <mxPoint x="280" y="488" as="sourcePoint" />
            <mxPoint x="210" y="511" as="targetPoint" />
          </mxGeometry>
        </mxCell>
        <mxCell id="5Oazz_i3McC3uQw2maXA-135" value="&lt;font style=&quot;font-size: 8px;&quot;&gt;Data&lt;/font&gt;" style="text;html=1;align=center;verticalAlign=middle;resizable=0;points=[];autosize=1;strokeColor=none;fillColor=none;" vertex="1" parent="1">
          <mxGeometry x="213" y="480" width="40" height="30" as="geometry" />
        </mxCell>
        <mxCell id="5Oazz_i3McC3uQw2maXA-137" value="&lt;font style=&quot;font-size: 10px;&quot;&gt;Ora&lt;/font&gt;" style="text;html=1;align=center;verticalAlign=middle;resizable=0;points=[];autosize=1;strokeColor=none;fillColor=none;" vertex="1" parent="1">
          <mxGeometry x="217" y="589.25" width="40" height="30" as="geometry" />
        </mxCell>
        <mxCell id="5Oazz_i3McC3uQw2maXA-138" value="" style="shape=waypoint;sketch=0;fillStyle=solid;size=6;pointerEvents=1;points=[];fillColor=none;resizable=0;rotatable=0;perimeter=centerPerimeter;snapToPoint=1;" vertex="1" parent="1">
          <mxGeometry x="510" y="200" width="20" height="20" as="geometry" />
        </mxCell>
        <mxCell id="5Oazz_i3McC3uQw2maXA-139" value="" style="endArrow=none;html=1;rounded=0;exitX=0.25;exitY=0;exitDx=0;exitDy=0;" edge="1" parent="1" target="5Oazz_i3McC3uQw2maXA-138">
          <mxGeometry width="50" height="50" relative="1" as="geometry">
            <mxPoint x="540" y="240" as="sourcePoint" />
            <mxPoint x="870" y="290" as="targetPoint" />
          </mxGeometry>
        </mxCell>
        <mxCell id="5Oazz_i3McC3uQw2maXA-140" value="IDTitolo" style="text;html=1;align=center;verticalAlign=middle;resizable=0;points=[];autosize=1;strokeColor=none;fillColor=none;" vertex="1" parent="1">
          <mxGeometry x="470" y="185.5" width="60" height="30" as="geometry" />
        </mxCell>
        <mxCell id="5Oazz_i3McC3uQw2maXA-141" value="" style="ellipse;whiteSpace=wrap;html=1;aspect=fixed;" vertex="1" parent="1">
          <mxGeometry x="552.5" y="215.5" width="7" height="7" as="geometry" />
        </mxCell>
        <mxCell id="5Oazz_i3McC3uQw2maXA-142" value="" style="endArrow=none;html=1;rounded=0;exitX=0.5;exitY=0;exitDx=0;exitDy=0;entryX=0.5;entryY=1;entryDx=0;entryDy=0;" edge="1" parent="1" target="5Oazz_i3McC3uQw2maXA-141">
          <mxGeometry width="50" height="50" relative="1" as="geometry">
            <mxPoint x="570" y="240" as="sourcePoint" />
            <mxPoint x="558.1081081081079" y="218" as="targetPoint" />
          </mxGeometry>
        </mxCell>
        <mxCell id="5Oazz_i3McC3uQw2maXA-149" value="&lt;font style=&quot;font-size: 7px;&quot;&gt;Emissione&lt;/font&gt;" style="text;html=1;align=center;verticalAlign=middle;resizable=0;points=[];autosize=1;strokeColor=none;fillColor=none;" vertex="1" parent="1">
          <mxGeometry x="526" y="195" width="60" height="30" as="geometry" />
        </mxCell>
        <mxCell id="5Oazz_i3McC3uQw2maXA-151" value="" style="ellipse;whiteSpace=wrap;html=1;aspect=fixed;" vertex="1" parent="1">
          <mxGeometry x="489" y="438" width="7" height="7" as="geometry" />
        </mxCell>
        <mxCell id="5Oazz_i3McC3uQw2maXA-153" value="" style="endArrow=none;html=1;rounded=0;entryX=0.5;entryY=1;entryDx=0;entryDy=0;exitX=0.5;exitY=0;exitDx=0;exitDy=0;" edge="1" parent="1" source="5Oazz_i3McC3uQw2maXA-151" target="ktAii_2EgNVlv4ma-x-2-14">
          <mxGeometry width="50" height="50" relative="1" as="geometry">
            <mxPoint x="550" y="430" as="sourcePoint" />
            <mxPoint x="600" y="380" as="targetPoint" />
          </mxGeometry>
        </mxCell>
        <mxCell id="5Oazz_i3McC3uQw2maXA-154" value="&lt;font style=&quot;font-size: 9px;&quot;&gt;Scadenza&lt;/font&gt;" style="text;html=1;align=center;verticalAlign=middle;resizable=0;points=[];autosize=1;strokeColor=none;fillColor=none;" vertex="1" parent="1">
          <mxGeometry x="460" y="438" width="60" height="30" as="geometry" />
        </mxCell>
        <mxCell id="5Oazz_i3McC3uQw2maXA-157" value="" style="ellipse;whiteSpace=wrap;html=1;aspect=fixed;" vertex="1" parent="1">
          <mxGeometry x="545.5" y="443" width="7" height="7" as="geometry" />
        </mxCell>
        <mxCell id="5Oazz_i3McC3uQw2maXA-158" value="" style="endArrow=none;html=1;rounded=0;entryX=0.942;entryY=1.008;entryDx=0;entryDy=0;exitX=0.5;exitY=0;exitDx=0;exitDy=0;entryPerimeter=0;" edge="1" parent="1" source="5Oazz_i3McC3uQw2maXA-157" target="ktAii_2EgNVlv4ma-x-2-14">
          <mxGeometry width="50" height="50" relative="1" as="geometry">
            <mxPoint x="479" y="455" as="sourcePoint" />
            <mxPoint x="549" y="425" as="targetPoint" />
          </mxGeometry>
        </mxCell>
        <mxCell id="5Oazz_i3McC3uQw2maXA-159" value="&lt;font style=&quot;font-size: 10px;&quot;&gt;IDTessera&lt;/font&gt;" style="text;html=1;align=center;verticalAlign=middle;resizable=0;points=[];autosize=1;strokeColor=none;fillColor=none;" vertex="1" parent="1">
          <mxGeometry x="545" y="426.5" width="70" height="30" as="geometry" />
        </mxCell>
        <mxCell id="5Oazz_i3McC3uQw2maXA-160" value="" style="endArrow=none;html=1;rounded=0;entryX=0.992;entryY=0.413;entryDx=0;entryDy=0;entryPerimeter=0;exitX=0;exitY=1;exitDx=0;exitDy=0;" edge="1" parent="1" source="5Oazz_i3McC3uQw2maXA-161" target="ktAii_2EgNVlv4ma-x-2-12">
          <mxGeometry width="50" height="50" relative="1" as="geometry">
            <mxPoint x="780" y="390" as="sourcePoint" />
            <mxPoint x="720" y="330" as="targetPoint" />
          </mxGeometry>
        </mxCell>
        <mxCell id="5Oazz_i3McC3uQw2maXA-161" value="" style="ellipse;whiteSpace=wrap;html=1;aspect=fixed;" vertex="1" parent="1">
          <mxGeometry x="786.5" y="383" width="7" height="7" as="geometry" />
        </mxCell>
        <mxCell id="5Oazz_i3McC3uQw2maXA-162" value="Validato" style="text;html=1;align=center;verticalAlign=middle;resizable=0;points=[];autosize=1;strokeColor=none;fillColor=none;" vertex="1" parent="1">
          <mxGeometry x="780" y="370" width="70" height="30" as="geometry" />
        </mxCell>
        <mxCell id="5Oazz_i3McC3uQw2maXA-165" value="" style="endArrow=none;html=1;rounded=0;entryX=1;entryY=0.75;entryDx=0;entryDy=0;exitX=0;exitY=0;exitDx=0;exitDy=0;" edge="1" parent="1" source="5Oazz_i3McC3uQw2maXA-166" target="SL1HbyL2wO8Xgx7NEVwD-25">
          <mxGeometry width="50" height="50" relative="1" as="geometry">
            <mxPoint x="270" y="580" as="sourcePoint" />
            <mxPoint x="340" y="450" as="targetPoint" />
          </mxGeometry>
        </mxCell>
        <mxCell id="5Oazz_i3McC3uQw2maXA-166" value="" style="ellipse;whiteSpace=wrap;html=1;aspect=fixed;" vertex="1" parent="1">
          <mxGeometry x="257" y="578" width="7" height="7" as="geometry" />
        </mxCell>
        <mxCell id="5Oazz_i3McC3uQw2maXA-167" value="&lt;font style=&quot;font-size: 10px;&quot;&gt;IDBiglietto&lt;/font&gt;" style="text;html=1;align=center;verticalAlign=middle;resizable=0;points=[];autosize=1;strokeColor=none;fillColor=none;" vertex="1" parent="1">
          <mxGeometry x="254" y="573" width="70" height="30" as="geometry" />
        </mxCell>
        <mxCell id="5Oazz_i3McC3uQw2maXA-168" value="" style="ellipse;whiteSpace=wrap;html=1;aspect=fixed;" vertex="1" parent="1">
          <mxGeometry x="1320" y="780" width="7" height="7" as="geometry" />
        </mxCell>
        <mxCell id="5Oazz_i3McC3uQw2maXA-169" value="" style="endArrow=none;html=1;rounded=0;entryX=0;entryY=1;entryDx=0;entryDy=0;exitX=0.639;exitY=0.625;exitDx=0;exitDy=0;exitPerimeter=0;" edge="1" parent="1" source="5Oazz_i3McC3uQw2maXA-170" target="ktAii_2EgNVlv4ma-x-2-31">
          <mxGeometry width="50" height="50" relative="1" as="geometry">
            <mxPoint x="1214.5" y="822.13" as="sourcePoint" />
            <mxPoint x="1234.5" y="780.13" as="targetPoint" />
          </mxGeometry>
        </mxCell>
        <mxCell id="5Oazz_i3McC3uQw2maXA-170" value="" style="shape=waypoint;sketch=0;fillStyle=solid;size=6;pointerEvents=1;points=[];fillColor=none;resizable=0;rotatable=0;perimeter=centerPerimeter;snapToPoint=1;" vertex="1" parent="1">
          <mxGeometry x="1180" y="775.88" width="20" height="20" as="geometry" />
        </mxCell>
        <mxCell id="5Oazz_i3McC3uQw2maXA-171" value="&lt;font style=&quot;font-size: 7px;&quot;&gt;IDTreno&lt;/font&gt;" style="text;html=1;align=center;verticalAlign=middle;resizable=0;points=[];autosize=1;strokeColor=none;fillColor=none;" vertex="1" parent="1">
          <mxGeometry x="1150" y="787" width="50" height="30" as="geometry" />
        </mxCell>
        <mxCell id="5Oazz_i3McC3uQw2maXA-172" value="" style="endArrow=none;html=1;rounded=0;entryX=0.914;entryY=1;entryDx=0;entryDy=0;exitX=0;exitY=0;exitDx=0;exitDy=0;entryPerimeter=0;" edge="1" parent="1" source="5Oazz_i3McC3uQw2maXA-168" target="ktAii_2EgNVlv4ma-x-2-31">
          <mxGeometry width="50" height="50" relative="1" as="geometry">
            <mxPoint x="1294.5" y="838.38" as="sourcePoint" />
            <mxPoint x="1325.5" y="780.13" as="targetPoint" />
          </mxGeometry>
        </mxCell>
        <mxCell id="5Oazz_i3McC3uQw2maXA-173" value="" style="ellipse;whiteSpace=wrap;html=1;aspect=fixed;" vertex="1" parent="1">
          <mxGeometry x="1270" y="780" width="7" height="7" as="geometry" />
        </mxCell>
        <mxCell id="5Oazz_i3McC3uQw2maXA-174" value="" style="endArrow=none;html=1;rounded=0;entryX=0.383;entryY=0.999;entryDx=0;entryDy=0;exitX=0;exitY=0;exitDx=0;exitDy=0;entryPerimeter=0;" edge="1" parent="1" source="5Oazz_i3McC3uQw2maXA-173" target="ktAii_2EgNVlv4ma-x-2-31">
          <mxGeometry width="50" height="50" relative="1" as="geometry">
            <mxPoint x="1234.5" y="870.38" as="sourcePoint" />
            <mxPoint x="1284.5" y="780.13" as="targetPoint" />
          </mxGeometry>
        </mxCell>
        <mxCell id="5Oazz_i3McC3uQw2maXA-175" value="" style="ellipse;whiteSpace=wrap;html=1;aspect=fixed;" vertex="1" parent="1">
          <mxGeometry x="1216.5" y="773.13" width="7" height="7" as="geometry" />
        </mxCell>
        <mxCell id="5Oazz_i3McC3uQw2maXA-176" value="" style="endArrow=none;html=1;rounded=0;entryX=0.11;entryY=1.007;entryDx=0;entryDy=0;exitX=0;exitY=0;exitDx=0;exitDy=0;entryPerimeter=0;" edge="1" parent="1" source="5Oazz_i3McC3uQw2maXA-175" target="ktAii_2EgNVlv4ma-x-2-31">
          <mxGeometry width="50" height="50" relative="1" as="geometry">
            <mxPoint x="1190.5" y="878.88" as="sourcePoint" />
            <mxPoint x="1249.5" y="780.13" as="targetPoint" />
          </mxGeometry>
        </mxCell>
        <mxCell id="5Oazz_i3McC3uQw2maXA-177" value="&lt;font style=&quot;font-size: 8px;&quot;&gt;Modello&lt;/font&gt;" style="text;html=1;align=center;verticalAlign=middle;resizable=0;points=[];autosize=1;strokeColor=none;fillColor=none;" vertex="1" parent="1">
          <mxGeometry x="1210" y="770" width="50" height="30" as="geometry" />
        </mxCell>
        <mxCell id="5Oazz_i3McC3uQw2maXA-181" value="&lt;font style=&quot;font-size: 10px;&quot;&gt;KW&lt;/font&gt;" style="text;html=1;align=center;verticalAlign=middle;resizable=0;points=[];autosize=1;strokeColor=none;fillColor=none;" vertex="1" parent="1">
          <mxGeometry x="1270" y="768.5" width="40" height="30" as="geometry" />
        </mxCell>
        <mxCell id="5Oazz_i3McC3uQw2maXA-182" value="&lt;font style=&quot;font-size: 9px;&quot;&gt;NumPosti&lt;/font&gt;" style="text;html=1;align=center;verticalAlign=middle;resizable=0;points=[];autosize=1;strokeColor=none;fillColor=none;" vertex="1" parent="1">
          <mxGeometry x="1300" y="780" width="60" height="30" as="geometry" />
        </mxCell>
        <mxCell id="5Oazz_i3McC3uQw2maXA-186" value="" style="endArrow=none;html=1;rounded=0;entryX=0.096;entryY=0.992;entryDx=0;entryDy=0;exitX=0.639;exitY=0.625;exitDx=0;exitDy=0;exitPerimeter=0;entryPerimeter=0;" edge="1" parent="1" source="5Oazz_i3McC3uQw2maXA-187" target="ktAii_2EgNVlv4ma-x-2-35">
          <mxGeometry width="50" height="50" relative="1" as="geometry">
            <mxPoint x="919.5" y="390.13" as="sourcePoint" />
            <mxPoint x="905" y="328" as="targetPoint" />
          </mxGeometry>
        </mxCell>
        <mxCell id="5Oazz_i3McC3uQw2maXA-187" value="" style="shape=waypoint;sketch=0;fillStyle=solid;size=6;pointerEvents=1;points=[];fillColor=none;resizable=0;rotatable=0;perimeter=centerPerimeter;snapToPoint=1;" vertex="1" parent="1">
          <mxGeometry x="880" y="320" width="20" height="20" as="geometry" />
        </mxCell>
        <mxCell id="5Oazz_i3McC3uQw2maXA-188" value="&lt;font style=&quot;font-size: 7px;&quot;&gt;IDTratta&lt;/font&gt;" style="text;html=1;align=center;verticalAlign=middle;resizable=0;points=[];autosize=1;strokeColor=none;fillColor=none;" vertex="1" parent="1">
          <mxGeometry x="850" y="302.5" width="50" height="30" as="geometry" />
        </mxCell>
        <mxCell id="5Oazz_i3McC3uQw2maXA-192" value="" style="ellipse;whiteSpace=wrap;html=1;aspect=fixed;" vertex="1" parent="1">
          <mxGeometry x="921.5" y="341.13" width="7" height="7" as="geometry" />
        </mxCell>
        <mxCell id="5Oazz_i3McC3uQw2maXA-193" value="" style="endArrow=none;html=1;rounded=0;entryX=0.187;entryY=1.015;entryDx=0;entryDy=0;exitX=0;exitY=0;exitDx=0;exitDy=0;entryPerimeter=0;" edge="1" parent="1" source="5Oazz_i3McC3uQw2maXA-192" target="ktAii_2EgNVlv4ma-x-2-35">
          <mxGeometry width="50" height="50" relative="1" as="geometry">
            <mxPoint x="895.5" y="446.88" as="sourcePoint" />
            <mxPoint x="918" y="328" as="targetPoint" />
          </mxGeometry>
        </mxCell>
        <mxCell id="5Oazz_i3McC3uQw2maXA-194" value="&lt;font style=&quot;font-size: 8px;&quot;&gt;Nome&lt;/font&gt;" style="text;html=1;align=center;verticalAlign=middle;resizable=0;points=[];autosize=1;strokeColor=none;fillColor=none;" vertex="1" parent="1">
          <mxGeometry x="905" y="335.5" width="40" height="30" as="geometry" />
        </mxCell>
        <mxCell id="5Oazz_i3McC3uQw2maXA-198" value="" style="ellipse;whiteSpace=wrap;html=1;aspect=fixed;" vertex="1" parent="1">
          <mxGeometry x="961.75" y="328.5" width="7" height="7" as="geometry" />
        </mxCell>
        <mxCell id="5Oazz_i3McC3uQw2maXA-200" value="" style="endArrow=none;html=1;rounded=0;entryX=0.539;entryY=1.014;entryDx=0;entryDy=0;entryPerimeter=0;exitX=0.5;exitY=0;exitDx=0;exitDy=0;" edge="1" parent="1" source="5Oazz_i3McC3uQw2maXA-198" target="ktAii_2EgNVlv4ma-x-2-35">
          <mxGeometry width="50" height="50" relative="1" as="geometry">
            <mxPoint x="950" y="380" as="sourcePoint" />
            <mxPoint x="1000" y="330" as="targetPoint" />
          </mxGeometry>
        </mxCell>
        <mxCell id="5Oazz_i3McC3uQw2maXA-201" value="&lt;font style=&quot;font-size: 8px;&quot;&gt;Lunghezza&lt;/font&gt;" style="text;html=1;align=center;verticalAlign=middle;resizable=0;points=[];autosize=1;strokeColor=none;fillColor=none;" vertex="1" parent="1">
          <mxGeometry x="950" y="325" width="60" height="30" as="geometry" />
        </mxCell>
        <mxCell id="5Oazz_i3McC3uQw2maXA-205" value="" style="ellipse;whiteSpace=wrap;html=1;aspect=fixed;" vertex="1" parent="1">
          <mxGeometry x="1043" y="126" width="7" height="7" as="geometry" />
        </mxCell>
        <mxCell id="5Oazz_i3McC3uQw2maXA-206" value="" style="endArrow=none;html=1;rounded=0;entryX=0.944;entryY=0.994;entryDx=0;entryDy=0;entryPerimeter=0;exitX=0.5;exitY=0;exitDx=0;exitDy=0;" edge="1" parent="1" source="5Oazz_i3McC3uQw2maXA-205" target="TiR6396ykjruT_jB_-4C-10">
          <mxGeometry width="50" height="50" relative="1" as="geometry">
            <mxPoint x="1000" y="183" as="sourcePoint" />
            <mxPoint x="1015" y="106" as="targetPoint" />
          </mxGeometry>
        </mxCell>
        <mxCell id="5Oazz_i3McC3uQw2maXA-207" value="&lt;font style=&quot;font-size: 8px;&quot;&gt;IDTratta&lt;/font&gt;" style="text;html=1;align=center;verticalAlign=middle;resizable=0;points=[];autosize=1;strokeColor=none;fillColor=none;" vertex="1" parent="1">
          <mxGeometry x="1040" y="120" width="50" height="30" as="geometry" />
        </mxCell>
        <mxCell id="5Oazz_i3McC3uQw2maXA-209" value="" style="ellipse;whiteSpace=wrap;html=1;aspect=fixed;" vertex="1" parent="1">
          <mxGeometry x="1070" y="108" width="7" height="7" as="geometry" />
        </mxCell>
        <mxCell id="5Oazz_i3McC3uQw2maXA-210" value="" style="endArrow=none;html=1;rounded=0;entryX=1.006;entryY=0.839;entryDx=0;entryDy=0;entryPerimeter=0;exitX=0.5;exitY=0;exitDx=0;exitDy=0;" edge="1" parent="1" source="5Oazz_i3McC3uQw2maXA-209" target="TiR6396ykjruT_jB_-4C-10">
          <mxGeometry width="50" height="50" relative="1" as="geometry">
            <mxPoint x="1041.25" y="152.5" as="sourcePoint" />
            <mxPoint x="1054.25" y="69.5" as="targetPoint" />
          </mxGeometry>
        </mxCell>
        <mxCell id="5Oazz_i3McC3uQw2maXA-211" value="&lt;font style=&quot;font-size: 7px;&quot;&gt;IDFermata&lt;/font&gt;" style="text;html=1;align=center;verticalAlign=middle;resizable=0;points=[];autosize=1;strokeColor=none;fillColor=none;" vertex="1" parent="1">
          <mxGeometry x="1070" y="100" width="60" height="30" as="geometry" />
        </mxCell>
        <mxCell id="5Oazz_i3McC3uQw2maXA-213" value="" style="endArrow=none;html=1;rounded=0;exitX=0.639;exitY=0.625;exitDx=0;exitDy=0;exitPerimeter=0;" edge="1" parent="1" source="5Oazz_i3McC3uQw2maXA-214">
          <mxGeometry width="50" height="50" relative="1" as="geometry">
            <mxPoint x="1048.25" y="188.13" as="sourcePoint" />
            <mxPoint x="1040" y="90" as="targetPoint" />
          </mxGeometry>
        </mxCell>
        <mxCell id="5Oazz_i3McC3uQw2maXA-214" value="" style="shape=waypoint;sketch=0;fillStyle=solid;size=6;pointerEvents=1;points=[];fillColor=none;resizable=0;rotatable=0;perimeter=centerPerimeter;snapToPoint=1;" vertex="1" parent="1">
          <mxGeometry x="991.75" y="118" width="20" height="20" as="geometry" />
        </mxCell>
        <mxCell id="5Oazz_i3McC3uQw2maXA-221" value="" style="endArrow=none;html=1;rounded=0;entryX=1.002;entryY=0.234;entryDx=0;entryDy=0;entryPerimeter=0;exitX=0;exitY=0.5;exitDx=0;exitDy=0;" edge="1" parent="1" source="5Oazz_i3McC3uQw2maXA-244" target="TiR6396ykjruT_jB_-4C-10">
          <mxGeometry width="50" height="50" relative="1" as="geometry">
            <mxPoint x="1073.5" y="65" as="sourcePoint" />
            <mxPoint x="1024" y="57.5" as="targetPoint" />
          </mxGeometry>
        </mxCell>
        <mxCell id="5Oazz_i3McC3uQw2maXA-223" value="&lt;font style=&quot;font-size: 8px;&quot;&gt;NumOrdine&lt;/font&gt;" style="text;html=1;align=center;verticalAlign=middle;resizable=0;points=[];autosize=1;strokeColor=none;fillColor=none;" vertex="1" parent="1">
          <mxGeometry x="1076.5" y="53.5" width="60" height="30" as="geometry" />
        </mxCell>
        <mxCell id="5Oazz_i3McC3uQw2maXA-224" value="" style="endArrow=none;html=1;rounded=0;exitX=0.639;exitY=0.625;exitDx=0;exitDy=0;exitPerimeter=0;entryX=0;entryY=0.25;entryDx=0;entryDy=0;" edge="1" parent="1" source="5Oazz_i3McC3uQw2maXA-225" target="ktAii_2EgNVlv4ma-x-2-33">
          <mxGeometry width="50" height="50" relative="1" as="geometry">
            <mxPoint x="896.5" y="-49.870000000000005" as="sourcePoint" />
            <mxPoint x="888.25" y="-148" as="targetPoint" />
          </mxGeometry>
        </mxCell>
        <mxCell id="5Oazz_i3McC3uQw2maXA-225" value="" style="shape=waypoint;sketch=0;fillStyle=solid;size=6;pointerEvents=1;points=[];fillColor=none;resizable=0;rotatable=0;perimeter=centerPerimeter;snapToPoint=1;" vertex="1" parent="1">
          <mxGeometry x="840" y="-120" width="20" height="20" as="geometry" />
        </mxCell>
        <mxCell id="5Oazz_i3McC3uQw2maXA-226" value="&lt;font style=&quot;font-size: 7px;&quot;&gt;IDFermata&lt;/font&gt;" style="text;html=1;align=center;verticalAlign=middle;resizable=0;points=[];autosize=1;strokeColor=none;fillColor=none;" vertex="1" parent="1">
          <mxGeometry x="810" y="-120" width="60" height="30" as="geometry" />
        </mxCell>
        <mxCell id="5Oazz_i3McC3uQw2maXA-227" value="" style="ellipse;whiteSpace=wrap;html=1;aspect=fixed;" vertex="1" parent="1">
          <mxGeometry x="1050" y="-133.5" width="7" height="7" as="geometry" />
        </mxCell>
        <mxCell id="5Oazz_i3McC3uQw2maXA-229" value="&lt;span style=&quot;font-size: 8px;&quot;&gt;Nome&lt;/span&gt;" style="text;html=1;align=center;verticalAlign=middle;resizable=0;points=[];autosize=1;strokeColor=none;fillColor=none;" vertex="1" parent="1">
          <mxGeometry x="1070" y="-145" width="40" height="30" as="geometry" />
        </mxCell>
        <mxCell id="5Oazz_i3McC3uQw2maXA-231" value="" style="endArrow=none;html=1;rounded=0;entryX=0;entryY=0.5;entryDx=0;entryDy=0;exitX=1;exitY=0.5;exitDx=0;exitDy=0;" edge="1" parent="1" source="ktAii_2EgNVlv4ma-x-2-33" target="5Oazz_i3McC3uQw2maXA-227">
          <mxGeometry width="50" height="50" relative="1" as="geometry">
            <mxPoint x="1010" y="-100" as="sourcePoint" />
            <mxPoint x="1060" y="-150" as="targetPoint" />
          </mxGeometry>
        </mxCell>
        <mxCell id="5Oazz_i3McC3uQw2maXA-232" value="" style="ellipse;whiteSpace=wrap;html=1;aspect=fixed;" vertex="1" parent="1">
          <mxGeometry x="1050" y="-163.5" width="7" height="7" as="geometry" />
        </mxCell>
        <mxCell id="5Oazz_i3McC3uQw2maXA-233" value="&lt;span style=&quot;font-size: 8px;&quot;&gt;Città&lt;/span&gt;" style="text;html=1;align=center;verticalAlign=middle;resizable=0;points=[];autosize=1;strokeColor=none;fillColor=none;" vertex="1" parent="1">
          <mxGeometry x="1050" y="-175" width="40" height="30" as="geometry" />
        </mxCell>
        <mxCell id="5Oazz_i3McC3uQw2maXA-234" value="" style="endArrow=none;html=1;rounded=0;entryX=0;entryY=0.5;entryDx=0;entryDy=0;exitX=1;exitY=0;exitDx=0;exitDy=0;" edge="1" parent="1" source="ktAii_2EgNVlv4ma-x-2-33" target="5Oazz_i3McC3uQw2maXA-232">
          <mxGeometry width="50" height="50" relative="1" as="geometry">
            <mxPoint x="1030" y="-170" as="sourcePoint" />
            <mxPoint x="1060" y="-180" as="targetPoint" />
          </mxGeometry>
        </mxCell>
        <mxCell id="5Oazz_i3McC3uQw2maXA-236" value="" style="endArrow=none;html=1;rounded=0;entryX=1;entryY=0;entryDx=0;entryDy=0;exitX=0;exitY=0.5;exitDx=0;exitDy=0;" edge="1" parent="1" source="5Oazz_i3McC3uQw2maXA-240" target="TiR6396ykjruT_jB_-4C-10">
          <mxGeometry width="50" height="50" relative="1" as="geometry">
            <mxPoint x="1070" y="40" as="sourcePoint" />
            <mxPoint x="1020" y="18" as="targetPoint" />
          </mxGeometry>
        </mxCell>
        <mxCell id="5Oazz_i3McC3uQw2maXA-237" value="&lt;font style=&quot;font-size: 8px;&quot;&gt;Binario&lt;/font&gt;" style="text;html=1;align=center;verticalAlign=middle;resizable=0;points=[];autosize=1;strokeColor=none;fillColor=none;" vertex="1" parent="1">
          <mxGeometry x="1075" y="28.5" width="50" height="30" as="geometry" />
        </mxCell>
        <mxCell id="5Oazz_i3McC3uQw2maXA-240" value="" style="ellipse;whiteSpace=wrap;html=1;aspect=fixed;" vertex="1" parent="1">
          <mxGeometry x="1077" y="40" width="7" height="7" as="geometry" />
        </mxCell>
        <mxCell id="5Oazz_i3McC3uQw2maXA-241" value="" style="ellipse;whiteSpace=wrap;html=1;aspect=fixed;" vertex="1" parent="1">
          <mxGeometry x="1050" y="-108.5" width="7" height="7" as="geometry" />
        </mxCell>
        <mxCell id="5Oazz_i3McC3uQw2maXA-242" value="&lt;span style=&quot;font-size: 8px;&quot;&gt;NumBinari&lt;/span&gt;" style="text;html=1;align=center;verticalAlign=middle;resizable=0;points=[];autosize=1;strokeColor=none;fillColor=none;" vertex="1" parent="1">
          <mxGeometry x="1050" y="-115" width="60" height="30" as="geometry" />
        </mxCell>
        <mxCell id="5Oazz_i3McC3uQw2maXA-243" value="" style="endArrow=none;html=1;rounded=0;entryX=0;entryY=0.5;entryDx=0;entryDy=0;exitX=0.996;exitY=0.898;exitDx=0;exitDy=0;exitPerimeter=0;" edge="1" parent="1" source="ktAii_2EgNVlv4ma-x-2-33" target="5Oazz_i3McC3uQw2maXA-241">
          <mxGeometry width="50" height="50" relative="1" as="geometry">
            <mxPoint x="1020" y="-105" as="sourcePoint" />
            <mxPoint x="1060" y="-125" as="targetPoint" />
          </mxGeometry>
        </mxCell>
        <mxCell id="5Oazz_i3McC3uQw2maXA-244" value="" style="ellipse;whiteSpace=wrap;html=1;aspect=fixed;" vertex="1" parent="1">
          <mxGeometry x="1076.5" y="65" width="7" height="7" as="geometry" />
        </mxCell>
        <mxCell id="5Oazz_i3McC3uQw2maXA-245" value="" style="ellipse;whiteSpace=wrap;html=1;aspect=fixed;" vertex="1" parent="1">
          <mxGeometry x="1351.75" y="380.5" width="7" height="7" as="geometry" />
        </mxCell>
        <mxCell id="5Oazz_i3McC3uQw2maXA-247" value="&lt;font style=&quot;font-size: 8px;&quot;&gt;IDTreno&lt;/font&gt;" style="text;html=1;align=center;verticalAlign=middle;resizable=0;points=[];autosize=1;strokeColor=none;fillColor=none;" vertex="1" parent="1">
          <mxGeometry x="1351.75" y="365.5" width="50" height="30" as="geometry" />
        </mxCell>
        <mxCell id="5Oazz_i3McC3uQw2maXA-248" value="" style="ellipse;whiteSpace=wrap;html=1;aspect=fixed;" vertex="1" parent="1">
          <mxGeometry x="1351.75" y="420" width="7" height="7" as="geometry" />
        </mxCell>
        <mxCell id="5Oazz_i3McC3uQw2maXA-249" value="" style="endArrow=none;html=1;rounded=0;entryX=1;entryY=1;entryDx=0;entryDy=0;exitX=0.5;exitY=0;exitDx=0;exitDy=0;" edge="1" parent="1" source="5Oazz_i3McC3uQw2maXA-248" target="T77WnbDbM9Hba829o4ZQ-19">
          <mxGeometry width="50" height="50" relative="1" as="geometry">
            <mxPoint x="1410" y="437.5" as="sourcePoint" />
            <mxPoint x="1425" y="360.5" as="targetPoint" />
          </mxGeometry>
        </mxCell>
        <mxCell id="5Oazz_i3McC3uQw2maXA-250" value="&lt;font style=&quot;font-size: 8px;&quot;&gt;IDTratta&lt;/font&gt;" style="text;html=1;align=center;verticalAlign=middle;resizable=0;points=[];autosize=1;strokeColor=none;fillColor=none;" vertex="1" parent="1">
          <mxGeometry x="1351.75" y="401.5" width="50" height="30" as="geometry" />
        </mxCell>
        <mxCell id="5Oazz_i3McC3uQw2maXA-251" value="" style="endArrow=none;html=1;rounded=0;exitX=0.536;exitY=0.375;exitDx=0;exitDy=0;exitPerimeter=0;" edge="1" parent="1" source="5Oazz_i3McC3uQw2maXA-252">
          <mxGeometry width="50" height="50" relative="1" as="geometry">
            <mxPoint x="1354.5" y="488.63" as="sourcePoint" />
            <mxPoint x="1330" y="380" as="targetPoint" />
          </mxGeometry>
        </mxCell>
        <mxCell id="5Oazz_i3McC3uQw2maXA-252" value="" style="shape=waypoint;sketch=0;fillStyle=solid;size=6;pointerEvents=1;points=[];fillColor=none;resizable=0;rotatable=0;perimeter=centerPerimeter;snapToPoint=1;" vertex="1" parent="1">
          <mxGeometry x="1320" y="442.38" width="20" height="20" as="geometry" />
        </mxCell>
        <mxCell id="5Oazz_i3McC3uQw2maXA-253" value="" style="endArrow=none;html=1;rounded=0;entryX=0;entryY=1;entryDx=0;entryDy=0;exitX=0.994;exitY=0.718;exitDx=0;exitDy=0;exitPerimeter=0;" edge="1" parent="1" source="T77WnbDbM9Hba829o4ZQ-19" target="5Oazz_i3McC3uQw2maXA-245">
          <mxGeometry width="50" height="50" relative="1" as="geometry">
            <mxPoint x="1300" y="470" as="sourcePoint" />
            <mxPoint x="1350" y="380" as="targetPoint" />
          </mxGeometry>
        </mxCell>
        <mxCell id="5Oazz_i3McC3uQw2maXA-254" value="&lt;font style=&quot;font-size: 9px;&quot;&gt;NumTreno&lt;/font&gt;" style="text;html=1;align=center;verticalAlign=middle;resizable=0;points=[];autosize=1;strokeColor=none;fillColor=none;" vertex="1" parent="1">
          <mxGeometry x="1351.75" y="343.5" width="70" height="30" as="geometry" />
        </mxCell>
        <mxCell id="5Oazz_i3McC3uQw2maXA-255" value="" style="ellipse;whiteSpace=wrap;html=1;aspect=fixed;" vertex="1" parent="1">
          <mxGeometry x="1353" y="355" width="7" height="7" as="geometry" />
        </mxCell>
        <mxCell id="5Oazz_i3McC3uQw2maXA-256" value="" style="endArrow=none;html=1;rounded=0;entryX=0;entryY=1;entryDx=0;entryDy=0;exitX=1;exitY=0.161;exitDx=0;exitDy=0;exitPerimeter=0;" edge="1" parent="1" source="T77WnbDbM9Hba829o4ZQ-19" target="5Oazz_i3McC3uQw2maXA-255">
          <mxGeometry width="50" height="50" relative="1" as="geometry">
            <mxPoint x="1330.25" y="355" as="sourcePoint" />
            <mxPoint x="1361.25" y="337" as="targetPoint" />
          </mxGeometry>
        </mxCell>
        <mxCell id="5Oazz_i3McC3uQw2maXA-258" value="" style="ellipse;whiteSpace=wrap;html=1;aspect=fixed;" vertex="1" parent="1">
          <mxGeometry x="-533" y="680" width="7" height="7" as="geometry" />
        </mxCell>
        <mxCell id="5Oazz_i3McC3uQw2maXA-260" value="&lt;font style=&quot;font-size: 9px;&quot;&gt;IDTreno&lt;/font&gt;" style="text;html=1;align=center;verticalAlign=middle;resizable=0;points=[];autosize=1;strokeColor=none;fillColor=none;" vertex="1" parent="1">
          <mxGeometry x="-560" y="680" width="60" height="30" as="geometry" />
        </mxCell>
        <mxCell id="5Oazz_i3McC3uQw2maXA-261" value="" style="endArrow=none;html=1;rounded=0;entryX=0.25;entryY=0;entryDx=0;entryDy=0;exitX=1;exitY=0.5;exitDx=0;exitDy=0;" edge="1" parent="1" source="5Oazz_i3McC3uQw2maXA-258" target="ktAii_2EgNVlv4ma-x-2-4">
          <mxGeometry width="50" height="50" relative="1" as="geometry">
            <mxPoint x="-490" y="670" as="sourcePoint" />
            <mxPoint x="-470" y="640" as="targetPoint" />
          </mxGeometry>
        </mxCell>
        <mxCell id="5Oazz_i3McC3uQw2maXA-319" value="" style="ellipse;whiteSpace=wrap;html=1;aspect=fixed;" vertex="1" parent="1">
          <mxGeometry x="324" y="229" width="7" height="7" as="geometry" />
        </mxCell>
        <mxCell id="5Oazz_i3McC3uQw2maXA-320" value="" style="endArrow=none;html=1;rounded=0;entryX=1;entryY=0.95;entryDx=0;entryDy=0;exitX=0;exitY=0;exitDx=0;exitDy=0;entryPerimeter=0;" edge="1" parent="1" source="5Oazz_i3McC3uQw2maXA-319" target="SL1HbyL2wO8Xgx7NEVwD-15">
          <mxGeometry width="50" height="50" relative="1" as="geometry">
            <mxPoint x="280" y="273" as="sourcePoint" />
            <mxPoint x="350" y="204" as="targetPoint" />
          </mxGeometry>
        </mxCell>
        <mxCell id="5Oazz_i3McC3uQw2maXA-322" value="&lt;font style=&quot;font-size: 8px;&quot;&gt;IDTitolo&lt;/font&gt;" style="text;html=1;align=center;verticalAlign=middle;resizable=0;points=[];autosize=1;strokeColor=none;fillColor=none;" vertex="1" parent="1">
          <mxGeometry x="317" y="222.5" width="50" height="30" as="geometry" />
        </mxCell>
        <mxCell id="5Oazz_i3McC3uQw2maXA-324" value="" style="endArrow=none;html=1;rounded=0;entryX=0.096;entryY=1.019;entryDx=0;entryDy=0;entryPerimeter=0;" edge="1" parent="1" source="5Oazz_i3McC3uQw2maXA-325" target="5Oazz_i3McC3uQw2maXA-33">
          <mxGeometry width="50" height="50" relative="1" as="geometry">
            <mxPoint x="150" y="-38" as="sourcePoint" />
            <mxPoint x="168" y="-56" as="targetPoint" />
          </mxGeometry>
        </mxCell>
        <mxCell id="5Oazz_i3McC3uQw2maXA-325" value="" style="shape=waypoint;sketch=0;fillStyle=solid;size=6;pointerEvents=1;points=[];fillColor=none;resizable=0;rotatable=0;perimeter=centerPerimeter;snapToPoint=1;" vertex="1" parent="1">
          <mxGeometry x="120" y="-44" width="20" height="20" as="geometry" />
        </mxCell>
        <mxCell id="5Oazz_i3McC3uQw2maXA-326" value="&lt;font style=&quot;font-size: 9px;&quot;&gt;IDStorico&lt;/font&gt;" style="text;html=1;align=center;verticalAlign=middle;resizable=0;points=[];autosize=1;strokeColor=none;fillColor=none;" vertex="1" parent="1">
          <mxGeometry x="90" y="-38" width="60" height="30" as="geometry" />
        </mxCell>
        <mxCell id="5Oazz_i3McC3uQw2maXA-327" value="" style="endArrow=none;html=1;rounded=0;entryX=1;entryY=0.5;entryDx=0;entryDy=0;exitX=0.5;exitY=0;exitDx=0;exitDy=0;" edge="1" parent="1" source="5Oazz_i3McC3uQw2maXA-328" target="5Oazz_i3McC3uQw2maXA-33">
          <mxGeometry width="50" height="50" relative="1" as="geometry">
            <mxPoint x="570" y="-90" as="sourcePoint" />
            <mxPoint x="490" y="60" as="targetPoint" />
          </mxGeometry>
        </mxCell>
        <mxCell id="5Oazz_i3McC3uQw2maXA-328" value="risiede" style="rhombus;whiteSpace=wrap;html=1;" vertex="1" parent="1">
          <mxGeometry x="600" y="-90" width="50" height="48" as="geometry" />
        </mxCell>
        <mxCell id="5Oazz_i3McC3uQw2maXA-330" value="" style="endArrow=none;html=1;rounded=0;entryX=0.5;entryY=1;entryDx=0;entryDy=0;exitX=0.874;exitY=0;exitDx=0;exitDy=0;exitPerimeter=0;" edge="1" parent="1" source="ktAii_2EgNVlv4ma-x-2-2" target="5Oazz_i3McC3uQw2maXA-328">
          <mxGeometry width="50" height="50" relative="1" as="geometry">
            <mxPoint x="440" y="110" as="sourcePoint" />
            <mxPoint x="490" y="60" as="targetPoint" />
          </mxGeometry>
        </mxCell>
        <mxCell id="5Oazz_i3McC3uQw2maXA-331" value="0,n" style="text;html=1;align=center;verticalAlign=middle;resizable=0;points=[];autosize=1;strokeColor=none;fillColor=none;" vertex="1" parent="1">
          <mxGeometry x="620" y="96.5" width="40" height="30" as="geometry" />
        </mxCell>
        <mxCell id="5Oazz_i3McC3uQw2maXA-332" value="1,1" style="text;html=1;align=center;verticalAlign=middle;resizable=0;points=[];autosize=1;strokeColor=none;fillColor=none;" vertex="1" parent="1">
          <mxGeometry x="400" y="-122" width="40" height="30" as="geometry" />
        </mxCell>
        <mxCell id="5Oazz_i3McC3uQw2maXA-333" value="" style="endArrow=none;html=1;rounded=0;entryX=1;entryY=1;entryDx=0;entryDy=0;exitX=0;exitY=0;exitDx=0;exitDy=0;" edge="1" parent="1" source="5Oazz_i3McC3uQw2maXA-334" target="5Oazz_i3McC3uQw2maXA-33">
          <mxGeometry width="50" height="50" relative="1" as="geometry">
            <mxPoint x="330" y="-36" as="sourcePoint" />
            <mxPoint x="290" y="-47" as="targetPoint" />
          </mxGeometry>
        </mxCell>
        <mxCell id="5Oazz_i3McC3uQw2maXA-334" value="" style="ellipse;whiteSpace=wrap;html=1;aspect=fixed;" vertex="1" parent="1">
          <mxGeometry x="317" y="-38" width="7" height="7" as="geometry" />
        </mxCell>
        <mxCell id="5Oazz_i3McC3uQw2maXA-335" value="&lt;font style=&quot;font-size: 10px;&quot;&gt;IDTitolo&lt;/font&gt;" style="text;html=1;align=center;verticalAlign=middle;resizable=0;points=[];autosize=1;strokeColor=none;fillColor=none;" vertex="1" parent="1">
          <mxGeometry x="312" y="-60" width="60" height="30" as="geometry" />
        </mxCell>
      </root>
    </mxGraphModel>
  </diagram>
</mxfile>
